<?xml version="1.0" encoding="UTF-8"?>
<svg width="14px" height="14px" viewBox="0 0 14 14" version="1.1" xmlns="http://www.w3.org/2000/svg" xmlns:xlink="http://www.w3.org/1999/xlink">
    <!-- Generator: Sketch 48.2 (47327) - http://www.bohemiancoding.com/sketch -->
    <title>icon/list/文件夹</title>
    <desc>Created with Sketch.</desc>
    <defs></defs>
    <g id="Symbols" stroke="none" stroke-width="1" fill="none" fill-rule="evenodd">
        <g id="icon" transform="translate(-100.000000, -257.000000)"></g>
        <g id="icon/list/文件夹" fill="#919AA7">
            <path d="M12.25,6.25 C12.7,6.25 13,6.55 13,7 L13,12.25 C13,12.7 12.7,13 12.25,13 L1.75,13 C1.3,13 1,12.7 1,12.25 L1,7 C1,6.55 1.3,6.25 1.75,6.25 L12.25,6.25 Z M11.5,2.5 C11.95,2.5 12.25,2.8 12.25,3.25 L12.25,4.75 L1.75,4.75 L1.75,1.75 C1.75,1.3 2.05,1 2.5,1 L4.75,1 C4.975,1 5.125,1.075 5.275,1.225 L6.55,2.5 L11.5,2.5 Z" id="Combined-Shape"></path>
        </g>
    </g>
</svg>