<?xml version="1.0" encoding="UTF-8"?>
<svg width="97px" height="20px" viewBox="0 0 97 20" version="1.1" xmlns="http://www.w3.org/2000/svg" xmlns:xlink="http://www.w3.org/1999/xlink">
    <!-- Generator: Sketch 48.2 (47327) - http://www.bohemiancoding.com/sketch -->
    <title>icon/仓库列表/小元素</title>
    <desc>Created with Sketch.</desc>
    <defs></defs>
    <g id="Symbols" stroke="none" stroke-width="1" fill="none" fill-rule="evenodd">
        <g id="icon" transform="translate(-178.000000, -291.000000)"></g>
        <g id="icon/仓库列表/小元素">
            <g id="仓库列表/小元素" transform="translate(1.000000, 0.000000)">
                <text id="46" font-family="PingFangSC-Regular, PingFang SC" font-size="14" font-weight="normal" fill="#475669">
                    <tspan x="15" y="15">46</tspan>
                </text>
                <text id="12" font-family="PingFangSC-Regular, PingFang SC" font-size="14" font-weight="normal" fill="#475669">
                    <tspan x="81" y="15">12</tspan>
                </text>
                <path d="M73,5.5 L73,11.5 L73.75,11.5 L73.75,13 C73.75,13.8272705 73.0772705,14.5 72.25,14.5 C71.4227295,14.5 70.75,13.8272705 70.75,13 L70.75,7 C70.75,5.3458252 69.4041748,4 67.75,4 C66.0958252,4 64.75,5.3458252 64.75,7 L64.75,8.5 L64,8.5 L64,14.5 L67,14.5 L67,8.5 L66.25,8.5 L66.25,7 C66.25,6.17272953 66.9227295,5.5 67.75,5.5 C68.5772705,5.5 69.25,6.17272953 69.25,7 L69.25,13 C69.25,14.6541748 70.5958252,16 72.25,16 C73.9041748,16 75.25,14.6541748 75.25,13 L75.25,11.5 L76,11.5 L76,5.5 L73,5.5 Z" id="fork" fill="#ADB7C3"></path>
                <polygon id="收藏" fill="#ADB7C3" points="6 13.1209757 2.29179607 15 3 11.0201626 1.66533454e-16 8.20162612 4.14589803 7.62097567 6 4 7.85410197 7.62097567 12 8.20162612 9 11.0201626 9.70820393 15"></polygon>
            </g>
        </g>
    </g>
</svg>