<?xml version="1.0" encoding="UTF-8"?>
<svg width="44px" height="44px" viewBox="0 0 44 44" version="1.1" xmlns="http://www.w3.org/2000/svg" xmlns:xlink="http://www.w3.org/1999/xlink">
    <!-- Generator: Sketch 48.2 (47327) - http://www.bohemiancoding.com/sketch -->
    <title>icon/常用框架/Django_icon</title>
    <desc>Created with Sketch.</desc>
    <defs></defs>
    <g id="Symbols" stroke="none" stroke-width="1" fill="none" fill-rule="evenodd">
        <g id="icon" transform="translate(-556.000000, -320.000000)"></g>
        <g id="icon/常用框架/Django_icon" fill="#465364" fill-rule="nonzero">
            <g id="django" transform="translate(4.000000, 16.000000)">
                <path d="M3.47971832,0 L5.55901408,0 L5.55901408,9.4186534 C4.49394365,9.61776263 3.70985914,9.6960964 2.8615493,9.6960964 C0.321971841,9.69347655 -1,8.57217711 -1,6.4186534 C-1,4.34372542 0.402253528,2.99711815 2.57521126,2.99711815 C2.91239436,2.99711815 3.16929577,3.02331673 3.47971832,3.10191248 L3.47971832,0 Z M3.47971832,4.73932409 C3.23619718,4.66072833 3.03549295,4.63452972 2.77859157,4.63452972 C1.72690142,4.63452972 1.11943662,5.26853549 1.11943662,6.37961751 C1.11943662,7.46135708 1.70014086,8.05868483 2.76521126,8.05868483 C2.99535212,8.05868483 3.18267604,8.04584752 3.47971832,8.00654964 L3.47971832,4.73932409 Z M8.86394365,3.14121036 L8.86394365,7.8569557 C8.86394365,9.48100602 8.74084505,10.2619859 8.37957746,10.9352895 C8.04239436,11.5826565 7.59816903,11.9908305 6.68028168,12.4417081 L4.75084506,11.5430967 C5.66873239,11.1215614 6.11295776,10.7490175 6.39661972,10.1805083 C6.69366196,9.59916165 6.78732396,8.92585799 6.78732396,7.15483365 L6.78732396,3.14121036 L8.86394365,3.14121036 Z M6.78732396,0.0104794346 L8.86661973,0.0104794346 L8.86661973,2.09850669 L6.78732396,2.09850669 L6.78732396,0.0104794346 Z M10.1187465,3.60492535 C11.0369014,3.18312811 11.9146479,2.99711815 12.872676,2.99711815 C13.9404226,2.99711815 14.6412817,3.27482317 14.9519718,3.81713389 C15.1259155,4.12103745 15.1821127,4.51663611 15.1821127,5.36285042 L15.1821127,9.49698717 C14.2511127,9.62798008 13.0760563,9.72203303 12.2140986,9.72203303 C10.4719859,9.72203303 9.69057745,9.12732514 9.69057745,7.80717842 C9.69057745,6.37935552 10.7291549,5.71915117 13.279169,5.50930052 L13.279169,5.0613047 C13.279169,4.69190464 13.089169,4.55829187 12.564662,4.55829187 C11.7966338,4.55829187 10.9322676,4.7705004 10.1214225,5.17919834 L10.1187465,3.60492535 Z M13.372831,6.84018862 C11.997338,6.97118157 11.5504366,7.18365209 11.5504366,7.71260151 C11.5504366,8.10872414 11.807338,8.29447208 12.374662,8.29447208 C12.6850845,8.29447208 12.9687465,8.26827351 13.3725634,8.20277704 L13.3725634,6.84018862 L13.372831,6.84018862 Z M16.193662,3.45821327 C17.4219718,3.14121036 18.4332535,2.99711815 19.4581831,2.99711815 C20.5232535,2.99711815 21.2942253,3.2355253 21.7515634,3.69662038 C22.1821409,4.13151689 22.3191549,4.60833114 22.3191549,5.62483624 L22.3191549,9.61488078 L20.2395916,9.61488078 L20.2395916,5.70605186 C20.2395916,4.92533404 19.9693098,4.63452972 19.2283098,4.63452972 C18.9443803,4.63452972 18.6877465,4.66072833 18.2702817,4.78124179 L18.2702817,9.61514276 L16.193662,9.61514276 L16.193662,3.45821327 Z M23.127324,10.7254388 C23.8549436,11.0948389 24.5830986,11.2653917 25.3538028,11.2653917 C26.7159155,11.2653917 27.2966197,10.723081 27.2966197,9.42887086 L27.2966197,9.38957298 C26.8925352,9.58606234 26.4855071,9.66753996 25.9476197,9.66753996 C24.1254929,9.66753996 22.9667606,8.49122347 22.9667606,6.62850406 C22.9667606,4.31516898 24.6821127,3.00785958 27.7167606,3.00785958 C28.6078873,3.00785958 29.4321127,3.09955461 30.4300141,3.29866387 L29.7181831,4.76578465 C29.1647747,4.66099032 29.6726902,4.75006548 29.2554929,4.71076761 L29.2554929,4.92297617 L29.2822535,5.78228975 L29.2953662,6.89310978 C29.3090141,7.17107676 29.3090141,7.44825781 29.322662,7.72622478 L29.322662,8.28137281 C29.322662,10.0261986 29.1725352,10.8438564 28.7283098,11.5197799 C28.0807042,12.5098245 26.9597042,13 25.3669155,13 C24.556338,13 23.8549436,12.8818444 23.127324,12.6038774 L23.127324,10.7254388 Z M27.2564789,4.64762902 L27.1895775,4.64762902 L27.0394507,4.64762902 C26.6353662,4.63452972 26.1619718,4.73932409 25.8379014,4.93843332 C25.3404225,5.21613834 25.0837887,5.71915117 25.0837887,6.43175267 C25.0837887,7.44799583 25.5975916,8.02986639 26.5154789,8.02986639 C26.7988733,8.02986639 27.0292817,7.9777312 27.2968873,7.89887346 L27.2968873,7.75189939 L27.2968873,7.19675136 C27.2968873,6.95834425 27.2832395,6.69373853 27.2832395,6.41603355 L27.2701267,5.47812417 L27.2564789,4.80482054 L27.2564789,4.64762902 Z M33.6549294,2.97091958 C35.7315494,2.97091958 37,4.25203039 37,6.32695833 C37,8.45428346 35.6782957,9.78752949 33.5717043,9.78752949 C31.4924084,9.78752949 30.2103099,8.50668065 30.2103099,6.44511396 C30.2137887,4.30442755 31.5354929,2.97091958 33.6549294,2.97091958 Z M33.6121126,8.14749805 C34.4095776,8.14749805 34.8805635,7.50065495 34.8805635,6.37673566 C34.8805635,5.26591564 34.4226902,4.60571128 33.6257604,4.60571128 C32.8015353,4.60571128 32.3300141,5.25281636 32.3300141,6.37673566 C32.3300141,7.50065495 32.8039435,8.14749805 33.6121126,8.14749805 Z" id="Shape"></path>
            </g>
        </g>
    </g>
</svg>