<?xml version="1.0" encoding="UTF-8"?>
<svg width="44px" height="44px" viewBox="0 0 44 44" version="1.1" xmlns="http://www.w3.org/2000/svg" xmlns:xlink="http://www.w3.org/1999/xlink">
    <!-- Generator: Sketch 48.2 (47327) - http://www.bohemiancoding.com/sketch -->
    <title>icon/常用框架/Flask_icon</title>
    <desc>Created with Sketch.</desc>
    <defs>
        <linearGradient x1="-51.2073864%" y1="0%" x2="201.731179%" y2="152.010091%" id="linearGradient-1">
            <stop stop-color="#FF6775" offset="0%"></stop>
            <stop stop-color="#D82AB6" offset="100%"></stop>
        </linearGradient>
    </defs>
    <g id="Symbols" stroke="none" stroke-width="1" fill="none" fill-rule="evenodd">
        <g id="icon" transform="translate(-620.000000, -320.000000)"></g>
        <g id="icon/常用框架/Flask_icon" fill="url(#linearGradient-1)" fill-rule="nonzero">
            <path d="M32.4771716,30.6257188 C33.0405849,31.5524627 33.1486367,32.3465289 32.8013272,33.0079173 C32.4540176,33.6693058 31.7478215,34 30.6827389,34 L13.3172611,34 C12.2521785,34 11.5459824,33.6693058 11.1986728,33.0079173 C10.8513633,32.3465289 10.9594151,31.5524627 11.5228284,30.6257188 L19.1057537,18.2346862 L19.1057537,12.0001667 L18.1410049,12.0001667 C17.8798796,12.0001667 17.6534852,11.9014918 17.4618218,11.704142 C17.2701584,11.5067922 17.1749698,11.272106 17.1762562,11.0000834 C17.1775425,10.7280607 17.2727311,10.4933745 17.4618218,10.2960247 C17.6509126,10.0986749 17.8773069,10 18.1410049,10 L25.8589951,10 C26.1201204,10 26.3465148,10.0986749 26.5381782,10.2960247 C26.7298416,10.4933745 26.8250302,10.7280607 26.8237439,11.0000834 C26.8224575,11.272106 26.727269,11.5067922 26.5381782,11.704142 C26.3490875,11.9014918 26.1226931,12.0001667 25.8589951,12.0001667 L24.8942463,12.0001667 L24.8942463,18.2346862 L32.4771716,30.6257188 Z M20.7342496,19.2947746 L16.6340674,25.9993333 L27.3659326,25.9993333 L23.2657504,19.2947746 L22.9647488,18.8107343 L22.9647488,11.9981666 L21.0352512,11.9981666 L21.0352512,18.8107343 L20.7342496,19.2947746 Z" id="Shape"></path>
        </g>
    </g>
</svg>