<?xml version="1.0" encoding="UTF-8"?>
<svg width="12px" height="12px" viewBox="0 0 12 12" version="1.1" xmlns="http://www.w3.org/2000/svg" xmlns:xlink="http://www.w3.org/1999/xlink">
    <!-- Generator: Sketch 47.1 (45422) - http://www.bohemiancoding.com/sketch -->
    <title>fork</title>
    <desc>Created with Sketch.</desc>
    <defs></defs>
    <g id="Symbols" stroke="none" stroke-width="1" fill="none" fill-rule="evenodd">
        <g id="仓库列表/小元素" transform="translate(-65.000000, -4.000000)" fill="#ADB7C3">
            <g transform="translate(1.000000, 0.000000)" id="fork">
                <path d="M73,5.5 L73,11.5 L73.75,11.5 L73.75,13 C73.75,13.8272705 73.0772705,14.5 72.25,14.5 C71.4227295,14.5 70.75,13.8272705 70.75,13 L70.75,7 C70.75,5.3458252 69.4041748,4 67.75,4 C66.0958252,4 64.75,5.3458252 64.75,7 L64.75,8.5 L64,8.5 L64,14.5 L67,14.5 L67,8.5 L66.25,8.5 L66.25,7 C66.25,6.17272953 66.9227295,5.5 67.75,5.5 C68.5772705,5.5 69.25,6.17272953 69.25,7 L69.25,13 C69.25,14.6541748 70.5958252,16 72.25,16 C73.9041748,16 75.25,14.6541748 75.25,13 L75.25,11.5 L76,11.5 L76,5.5 L73,5.5 Z"></path>
            </g>
        </g>
    </g>
</svg>