<?xml version="1.0" encoding="UTF-8"?>
<svg width="1200px" height="46px" viewBox="0 0 1200 46" version="1.1" xmlns="http://www.w3.org/2000/svg" xmlns:xlink="http://www.w3.org/1999/xlink">
    <!-- Generator: Sketch 48.1 (47250) - http://www.bohemiancoding.com/sketch -->
    <title>tab_文件</title>
    <desc>Created with Sketch.</desc>
    <defs>
        <rect id="path-1" x="0" y="0" width="107" height="46"></rect>
    </defs>
    <g id="Symbols" stroke="none" stroke-width="1" fill="none" fill-rule="evenodd">
        <g id="tab_文件">
            <g>
                <g id="Group-12" transform="translate(129.000000, 13.000000)">
                    <text id="工单管理" font-family="PingFangSC-Regular, PingFang SC" font-size="14" font-weight="normal" fill="#919AA7">
                        <tspan x="22" y="15">工单管理</tspan>
                    </text>
                    <g id="Group-16" transform="translate(81.000000, 1.000000)">
                        <rect id="Rectangle-5" fill="#308EFF" x="0" y="1" width="20" height="16" rx="8"></rect>
                        <text id="5" font-family="PingFangSC-Medium, PingFang SC" font-size="12" font-weight="400" fill="#FFFFFF">
                            <tspan x="6" y="13">5</tspan>
                        </text>
                    </g>
                    <g id="icon/工单管理" opacity="0.5" fill="#465364">
                        <path d="M10,16 C6.7,16 4,13.3 4,10 C4,6.7 6.7,4 10,4 C13.3,4 16,6.7 16,10 C16,13.3 13.3,16 10,16 M10,2 C14.4,2 18,5.6 18,10 C18,14.4 14.4,18 10,18 C5.6,18 2,14.4 2,10 C2,5.6 5.6,2 10,2 Z M9.0003,6 L9.0003,11 L11.0003,11 L11.0003,6 L9.0003,6 Z M10,12 C9.448,12 9,12.448 9,13 C9,13.552 9.448,14 10,14 C10.552,14 11,13.552 11,13 C11,12.448 10.552,12 10,12 Z" id="Combined-Shape"></path>
                    </g>
                </g>
                <g id="Group-11" transform="translate(280.000000, 13.000000)">
                    <text id="合并请求" font-family="PingFangSC-Regular, PingFang SC" font-size="14" font-weight="normal" fill="#919AA7">
                        <tspan x="25" y="15">合并请求</tspan>
                    </text>
                    <g id="Group-16" transform="translate(83.000000, 1.000000)">
                        <rect id="Rectangle-5" fill="#308EFF" x="0" y="1" width="20" height="16" rx="8"></rect>
                        <text id="8" font-family="PingFangSC-Medium, PingFang SC" font-size="12" font-weight="400" fill="#FFFFFF">
                            <tspan x="6" y="13">8</tspan>
                        </text>
                    </g>
                    <g id="icon/合并请求" opacity="0.5" fill="#465364">
                        <path d="M18,4 L14,4 L14,12 L15,12 L15,14 C15,15.1030273 14.1030273,16 13,16 C11.8969727,16 11,15.1030273 11,14 L11,6 C11,3.7944336 9.2055664,2 7,2 C4.7944336,2 3,3.7944336 3,6 L3,8 L2,8 L2,16 L6,16 L6,8 L5,8 L5,6 C5,4.8969727 5.8969727,4 7,4 C8.1030273,4 9,4.8969727 9,6 L9,14 C9,16.2055664 10.7944336,18 13,18 C15.2055664,18 17,16.2055664 17,14 L17,12 L18,12 L18,4 L18,4 Z" id="Shape"></path>
                    </g>
                </g>
                <g id="Group-10" transform="translate(433.000000, 13.000000)">
                    <g id="icon/wiki" opacity="0.5" fill="#465364">
                        <g transform="translate(2.000000, 4.000000)" id="Fill-212">
                            <path d="M14,10.5 C13.3,10.2 12.4,10 11.5,10 C10.6,10 9.7,10.2 9,10.5 L9,3 C9,2.7 9.9,2 11.5,2 C13.1,2 14,2.7 14,3 L14,10.5 Z M4.5,10 C3.6,10 2.7,10.2 2,10.5 L2,3 C2,2.7 2.9,2 4.5,2 C6.1,2 7,2.7 7,3 L7,10.5 C6.3,10.2 5.4,10 4.5,10 L4.5,10 Z M11.5,0 C10.1,0 8.8,0.4 8,1.1 C7.2,0.4 5.9,0 4.5,0 C1.9,0 0,1.3 0,3 L0,13 C0,13.6 0.4,14 1,14 C1.6,14 2,13.6 2,13 C2,12.7 2.9,12 4.5,12 C6.1,12 7,12.7 7,13 C7,13.6 7.4,14 8,14 C8.6,14 9,13.6 9,13 C9,12.7 9.9,12 11.5,12 C13.1,12 14,12.7 14,13 C14,13.6 14.4,14 15,14 C15.6,14 16,13.6 16,13 L16,3 C16,1.3 14.1,0 11.5,0 L11.5,0 Z"></path>
                        </g>
                    </g>
                    <text id="Wiki" font-family="PingFangSC-Regular, PingFang SC" font-size="14" font-weight="normal" fill="#919AA7">
                        <tspan x="25" y="15">Wiki</tspan>
                    </text>
                </g>
                <g id="icon/wiki" transform="translate(1123.000000, 13.000000)" fill="#465364">
                    <path d="M10,13 C8.3,13 7,11.7 7,10 C7,8.3 8.3,7 10,7 C11.7,7 13,8.3 13,10 C13,11.7 11.7,13 10,13 M15.3,7.2 L16.4,5.1 L15,3.7 L12.9,4.8 C12.6,4.6 12.2,4.5 11.8,4.4 L11,2 L9,2 L8.2,4.3 C7.9,4.4 7.5,4.5 7.2,4.7 L5.1,3.6 L3.6,5.1 L4.7,7.2 C4.5,7.5 4.4,7.9 4.3,8.2 L2,9 L2,11 L4.3,11.8 C4.4,12.2 4.6,12.5 4.7,12.9 L3.6,15 L5,16.4 L7.1,15.3 C7.4,15.5 7.8,15.6 8.2,15.7 L9,18 L11,18 L11.8,15.7 C12.2,15.6 12.5,15.4 12.9,15.3 L15,16.4 L16.4,15 L15.3,12.9 C15.5,12.6 15.6,12.2 15.7,11.8 L18,11 L18,9 L15.7,8.2 C15.6,7.9 15.5,7.5 15.3,7.2" id="Fill-169"></path>
                </g>
                <text id="仓库设置" font-family="PingFangSC-Regular, PingFang SC" font-size="14" font-weight="normal" fill="#465364">
                    <tspan x="1144" y="28">仓库设置</tspan>
                </text>
                <g id="Group-13">
                    <g id="Rectangle-6">
                        <mask id="mask-2" fill="white">
                            <use xlink:href="#path-1"></use>
                        </mask>
                        <use id="Mask" fill="#FFFFFF" xlink:href="#path-1"></use>
                        <rect fill="#308EFF" mask="url(#mask-2)" x="0" y="0" width="107" height="2"></rect>
                    </g>
                    <g id="Group-15" transform="translate(29.000000, 13.000000)">
                        <text id="文件" font-family="PingFangSC-Semibold, PingFang SC" font-size="14" font-weight="500" fill="#475669">
                            <tspan x="22" y="15">文件</tspan>
                        </text>
                        <g id="icon/文件" fill="#465364">
                            <path d="M10,5 L10,4 C10,3.4 9.6,3 9,3 L3,3 C2.4,3 2,3.4 2,4 L2,17 C2,17.6 2.4,18 3,18 L17,18 C17.6,18 18,17.6 18,17 L18,6 C18,5.4 17.6,5 17,5 L10,5 Z M8,6 C8,6.6 8.4,7 9,7 L16,7 L16,9 L4,9 L4,5 L8,5 L8,6 Z M4,11 L16,11 L16,16 L4,16 L4,11 Z" id="Fill-8"></path>
                        </g>
                    </g>
                </g>
            </g>
        </g>
    </g>
</svg>