<?xml version="1.0" encoding="UTF-8"?>
<svg width="20px" height="20px" viewBox="0 0 20 20" version="1.1" xmlns="http://www.w3.org/2000/svg" xmlns:xlink="http://www.w3.org/1999/xlink">
    <!-- Generator: Sketch 48.1 (47250) - http://www.bohemiancoding.com/sketch -->
    <title>icon/代码分支</title>
    <desc>Created with Sketch.</desc>
    <defs></defs>
    <g id="Symbols" stroke="none" stroke-width="1" fill="none" fill-rule="evenodd">
        <g id="icon/代码分支" fill="#ADB7C3">
            <path d="M18,4 L14,4 L14,12 L15,12 L15,14 C15,15.1030273 14.1030273,16 13,16 C11.8969727,16 11,15.1030273 11,14 L11,6 C11,3.7944336 9.2055664,2 7,2 C4.7944336,2 3,3.7944336 3,6 L3,8 L2,8 L2,16 L6,16 L6,8 L5,8 L5,6 C5,4.8969727 5.8969727,4 7,4 C8.1030273,4 9,4.8969727 9,6 L9,14 C9,16.2055664 10.7944336,18 13,18 C15.2055664,18 17,16.2055664 17,14 L17,12 L18,12 L18,4 L18,4 Z" id="Shape"></path>
        </g>
    </g>
</svg>