<?xml version="1.0" encoding="UTF-8"?>
<svg width="34px" height="34px" viewBox="0 0 34 34" version="1.1" xmlns="http://www.w3.org/2000/svg" xmlns:xlink="http://www.w3.org/1999/xlink">
    <!-- Generator: Sketch 49.1 (51147) - http://www.bohemiancoding.com/sketch -->
    <title>icon/公开仓库icon</title>
    <desc>Created with Sketch.</desc>
    <defs></defs>
    <g id="icon/公开仓库icon" stroke="none" stroke-width="1" fill="none" fill-rule="evenodd" stroke-linecap="round" stroke-linejoin="round">
        <g id="Group-11" transform="translate(6.000000, 4.000000)" stroke="#444444" stroke-width="2">
            <path d="M18,0 L20,0 C21.105,0 22,0.895 22,2 L22,24 C22,25.105 21.105,26 20,26 L18,26" id="Stroke-2032"></path>
            <path d="M18,26 L1.99508929,26 C0.893231902,26 0,25.1050211 0,24.0029953 L0,1.99700466 C0,0.89408944 0.892622799,0 1.99508929,0 L18,0 L18,26 Z" id="Stroke-2033"></path>
            <path d="M5,15 L13,15" id="Stroke-2034"></path>
            <path d="M5,19 L9,19" id="Stroke-2035"></path>
            <polyline id="Stroke-2038" points="11 0 11 8 8 6 5 8 5 0"></polyline>
        </g>
    </g>
</svg>