<?xml version="1.0" encoding="UTF-8"?>
<svg width="16px" height="16px" viewBox="0 0 16 16" version="1.1" xmlns="http://www.w3.org/2000/svg" xmlns:xlink="http://www.w3.org/1999/xlink">
    <!-- Generator: Sketch 47.1 (45422) - http://www.bohemiancoding.com/sketch -->
    <title>分支_白色</title>
    <desc>Created with Sketch.</desc>
    <defs></defs>
    <g id="页面" stroke="none" stroke-width="1" fill="none" fill-rule="evenodd">
        <g id="3.1.3.2.1-提交历史" transform="translate(-331.000000, -238.000000)" fill="#FFFFFF">
            <g id="Group-24" transform="translate(300.000000, 156.000000)">
                <g id="Group" transform="translate(0.000000, 46.000000)">
                    <g id="Group-23" transform="translate(20.000000, 25.000000)">
                        <g id="Group-21">
                            <g id="icon/wiki" transform="translate(11.000000, 11.000000)">
                                <path d="M16,2 L12,2 L12,10 L13,10 L13,12 C13,13.1030273 12.1030273,14 11,14 C9.8969727,14 9,13.1030273 9,12 L9,4 C9,1.7944336 7.2055664,0 5,0 C2.7944336,0 1,1.7944336 1,4 L1,6 L0,6 L0,14 L4,14 L4,6 L3,6 L3,4 C3,2.8969727 3.8969727,2 5,2 C6.1030273,2 7,2.8969727 7,4 L7,12 C7,14.2055664 8.7944336,16 11,16 C13.2055664,16 15,14.2055664 15,12 L15,10 L16,10 L16,2 L16,2 Z" id="分支_白色"></path>
                            </g>
                        </g>
                    </g>
                </g>
            </g>
        </g>
    </g>
</svg>