<?xml version="1.0" encoding="UTF-8"?>
<svg width="44px" height="44px" viewBox="0 0 44 44" version="1.1" xmlns="http://www.w3.org/2000/svg" xmlns:xlink="http://www.w3.org/1999/xlink">
    <!-- Generator: Sketch 48.1 (47250) - http://www.bohemiancoding.com/sketch -->
    <title>合并请求_红色</title>
    <desc>Created with Sketch.</desc>
    <defs></defs>
    <g id="3.4.0-合并请求" stroke="none" stroke-width="1" fill="none" fill-rule="evenodd" transform="translate(-330.000000, -892.000000)">
        <g id="Group-24" transform="translate(300.000000, 202.000000)">
            <g id="Group">
                <g id="Group-8" transform="translate(20.000000, 238.000000)">
                    <g id="Group-3" transform="translate(0.000000, 435.000000)">
                        <g id="合并请求_红色" transform="translate(10.000000, 17.000000)">
                            <circle id="Oval" fill="#FFE4E4" cx="22" cy="22" r="22"></circle>
                            <path d="M16.3848449,17.1315373 C15.2994114,16.5092084 14.7702172,15.2404817 15.0946082,14.0382347 C15.4189992,12.8359877 16.5160887,12 17.7694394,12 C19.0227901,12 20.1198796,12.8359877 20.4442707,14.0382347 C20.7686617,15.2404817 20.2394675,16.5092084 19.154034,17.1315373 L19.154034,23.3602477 C20.2943636,22.4654042 21.6460107,21.8747286 23.0807441,21.6442586 C26.5851528,21.0640123 28.3048192,20.1235183 28.7354281,18.440529 C27.684283,17.7709412 27.2144957,16.4855247 27.5884803,15.302288 C27.9624648,14.1190513 29.0876759,13.3307956 30.3355924,13.3778252 C31.5835089,13.4248549 32.6453242,14.2955319 32.9279289,15.5035132 C33.2105335,16.7114945 32.6439949,17.9578555 31.5447704,18.5464033 C31.0823158,21.8505073 28.3338957,23.5623714 23.534891,24.3557414 C20.810009,24.8067385 19.154034,26.9462249 19.154034,28.4999651 L19.154034,28.8684627 C20.2394675,29.4907916 20.7686617,30.7595183 20.4442707,31.9617653 C20.1198796,33.1640123 19.0227901,34 17.7694394,34 C16.5160887,34 15.4189992,33.1640123 15.0946082,31.9617653 C14.7702172,30.7595183 15.2994114,29.4907916 16.3848449,28.8684627 L16.3848449,17.1315373 Z M16.3848449,13.3750611 L16.3848449,16.1250437 L19.154034,16.1250437 L19.154034,13.3750611 L16.3848449,13.3750611 Z M16.3848449,29.8749563 L16.3848449,32.6249389 L19.154034,32.6249389 L19.154034,29.8749563 L16.3848449,29.8749563 Z M28.8461957,14.7500524 L28.8461957,17.5000349 L31.6153847,17.5000349 L31.6153847,14.7500524 L28.8461957,14.7500524 Z" id="Shape" fill="#DD4848" fill-rule="nonzero"></path>
                        </g>
                    </g>
                </g>
            </g>
        </g>
    </g>
</svg>