<?xml version="1.0" encoding="UTF-8"?>
<svg width="20px" height="20px" viewBox="0 0 20 20" version="1.1" xmlns="http://www.w3.org/2000/svg" xmlns:xlink="http://www.w3.org/1999/xlink">
    <!-- Generator: Sketch 48.1 (47250) - http://www.bohemiancoding.com/sketch -->
    <title>icon/复制</title>
    <desc>Created with Sketch.</desc>
    <defs></defs>
    <g id="Symbols" stroke="none" stroke-width="1" fill="none" fill-rule="evenodd">
        <g id="icon/复制" fill="#475669">
            <path d="M17,5 C17.6,5 18,5.4 18,6 L18,14 C18,14.6 17.6,15 17,15 L13,15 C12.4,15 12,14.6 12,14 C12,13.4 12.4,13 13,13 L16,13 L16,7 L13,7 C12.4,7 12,6.6 12,6 C12,5.4 12.4,5 13,5 L17,5 Z M7,13 C7.6,13 8,13.4 8,14 C8,14.6 7.6,15 7,15 L3,15 C2.4,15 2,14.6 2,14 L2,6 C2,5.4 2.4,5 3,5 L7,5 C7.6,5 8,5.4 8,6 C8,6.6 7.6,7 7,7 L4,7 L4,13 L7,13 Z M6,10 C6,9.4 6.4,9 7,9 L13,9 C13.6,9 14,9.4 14,10 C14,10.6 13.6,11 13,11 L7,11 C6.4,11 6,10.6 6,10 Z" id="Combined-Shape"></path>
        </g>
    </g>
</svg>