<?xml version="1.0" encoding="UTF-8"?>
<svg width="30px" height="30px" viewBox="0 0 30 30" version="1.1" xmlns="http://www.w3.org/2000/svg" xmlns:xlink="http://www.w3.org/1999/xlink">
    <!-- Generator: Sketch 47.1 (45422) - http://www.bohemiancoding.com/sketch -->
    <title>导航_添加</title>
    <desc>Created with Sketch.</desc>
    <defs></defs>
    <g id="Symbols" stroke="none" stroke-width="1" fill="none" fill-rule="evenodd">
        <g id="顶栏" transform="translate(-1350.000000, -15.000000)" fill="#FFFFFF">
            <g id="导航_添加">
                <g transform="translate(1350.000000, 15.000000)">
                    <circle id="Oval" fill-opacity="0.1" cx="15" cy="15" r="15"></circle>
                    <path d="M14,14 L8,14 L8,14 C7.44771525,14 7,14.4477153 7,15 C7,15.5522847 7.44771525,16 8,16 L14,16 L14,22 C14,22.5522847 14.4477153,23 15,23 C15.5522847,23 16,22.5522847 16,22 L16,16 L22,16 C22.5522847,16 23,15.5522847 23,15 C23,14.4477153 22.5522847,14 22,14 L16,14 L16,8 C16,7.44771525 15.5522847,7 15,7 C14.4477153,7 14,7.44771525 14,8 L14,14 Z" id="Combined-Shape"></path>
                </g>
            </g>
        </g>
    </g>
</svg>