<?xml version="1.0" encoding="UTF-8"?>
<svg width="16px" height="16px" viewBox="0 0 16 16" version="1.1" xmlns="http://www.w3.org/2000/svg" xmlns:xlink="http://www.w3.org/1999/xlink">
    <!-- Generator: Sketch 47.1 (45422) - http://www.bohemiancoding.com/sketch -->
    <title>帮助</title>
    <desc>Created with Sketch.</desc>
    <defs></defs>
    <g id="页面" stroke="none" stroke-width="1" fill="none" fill-rule="evenodd">
        <g id="03_用户设置_管理SSH" transform="translate(-551.000000, -596.000000)" fill-rule="nonzero" fill="#919AA7">
            <g id="右侧内容" transform="translate(530.000000, 70.000000)">
                <g id="Group-2" transform="translate(21.000000, 524.000000)">
                    <path d="M8,18 C3.58171428,18 0,14.4182857 0,10 C0,5.58171428 3.58171428,2 8,2 C12.4182857,2 16,5.58171428 16,10 C16,14.4182857 12.4182857,18 8,18 Z M8,3.14285714 C4.21295238,3.14285714 1.14285714,6.21295238 1.14285714,10 C1.14285714,13.7870476 4.21295238,16.8571429 8,16.8571429 C11.7870476,16.8571429 14.8571429,13.7870476 14.8571429,10 C14.8571429,6.21295238 11.7870476,3.14285714 8,3.14285714 Z M10.0453333,9.83580953 C9.87657142,10.0072381 9.57333333,10.296 9.136,10.7020952 C9.01523809,10.816381 8.91809523,10.9169524 8.84533333,11.0038095 C8.77257142,11.0902857 8.71809523,11.1695238 8.68266667,11.2415238 C8.64723809,11.3135238 8.61942858,11.3855238 8.6,11.4575238 C8.58057142,11.5295238 8.55123809,11.656 8.512,11.8369524 C8.44457142,12.2205714 8.23276191,12.4125714 7.87733333,12.4125714 C7.69257142,12.4125714 7.53676191,12.3497143 7.41066667,12.224381 C7.28457142,12.0990476 7.22133333,11.912381 7.22133333,11.6651429 C7.22133333,11.3550476 7.26742858,11.0868571 7.36,10.8598095 C7.45257142,10.6327619 7.57523809,10.4335238 7.728,10.2617143 C7.88076191,10.0902857 8.08723809,9.88647619 8.34666667,9.65028572 C8.57409523,9.44342858 8.73866667,9.28761905 8.84,9.18247619 C8.94133333,9.07733333 9.02666667,8.96 9.096,8.83085714 C9.16533333,8.70171428 9.2,8.56152381 9.2,8.41028572 C9.2,8.11504762 9.09409523,7.86590477 8.88266667,7.66285714 C8.67123809,7.46019047 8.39809523,7.35847619 8.064,7.35847619 C7.67276191,7.35847619 7.38476191,7.46095237 7.2,7.66552381 C7.01523809,7.87047619 6.85866667,8.17219047 6.73066667,8.57066667 C6.60990477,8.98780953 6.38057142,9.19619047 6.04266667,9.19619047 C5.84342858,9.19619047 5.67542858,9.12342858 5.53866667,8.97752381 C5.40190477,8.832 5.33333333,8.67390477 5.33333333,8.50438095 C5.33333333,8.15352381 5.44190477,7.79847619 5.65866667,7.43885714 C5.87542858,7.07885714 6.192,6.78095238 6.608,6.54476191 C7.024,6.30857142 7.50933333,6.19047619 8.064,6.19047619 C8.57942858,6.19047619 9.03466667,6.28914286 9.42933333,6.48647619 C9.824,6.68380953 10.1287619,6.95238095 10.344,7.29219047 C10.5592381,7.63161905 10.6666667,8.00076191 10.6666667,8.39923809 C10.6666667,8.71276191 10.6053333,8.98780953 10.4826667,9.224 C10.36,9.46019047 10.2140952,9.664 10.0453333,9.83580953 Z M7.936,12.9161905 C8.16,12.9161905 8.34857142,12.9958095 8.50133333,13.1542857 C8.65409523,13.3131429 8.73066667,13.5085714 8.73066667,13.7409524 C8.73066667,13.9992381 8.65066667,14.2022857 8.49066667,14.3500952 C8.33066667,14.4975238 8.14590477,14.5714286 7.936,14.5714286 C7.71923809,14.5714286 7.52990477,14.4986667 7.368,14.3527619 C7.20609523,14.2068571 7.12533333,14.0030476 7.12533333,13.7409524 C7.12533333,13.5085714 7.20342858,13.3131429 7.36,13.1542857 C7.51657142,12.9958095 7.70857142,12.9161905 7.936,12.9161905 Z" id="帮助"></path>
                </g>
            </g>
        </g>
    </g>
</svg>