<?xml version="1.0" encoding="UTF-8"?>
<svg width="16px" height="16px" viewBox="0 0 16 16" version="1.1" xmlns="http://www.w3.org/2000/svg" xmlns:xlink="http://www.w3.org/1999/xlink">
    <!-- Generator: Sketch 48.1 (47250) - http://www.bohemiancoding.com/sketch -->
    <title>感叹号_2</title>
    <desc>Created with Sketch.</desc>
    <defs></defs>
    <g id="3.6.4-管理Web钩子" stroke="none" stroke-width="1" fill="none" fill-rule="evenodd" transform="translate(-550.000000, -344.000000)">
        <g id="右侧内容" transform="translate(531.000000, 202.000000)" fill="#F65D5D" fill-rule="nonzero">
            <path d="M27,158 C22.581722,158 19,154.418278 19,150 C19,145.581722 22.581722,142 27,142 C31.418278,142 35,145.581722 35,150 C35,154.418278 31.418278,158 27,158 Z M28.1428571,146.571429 C28.1428571,145.940246 27.6311826,145.428571 27,145.428571 C26.3688174,145.428571 25.8571429,145.940246 25.8571429,146.571429 L25.8571429,150 C25.8571429,150.631183 26.3688174,151.142857 27,151.142857 C27.6311826,151.142857 28.1428571,150.631183 28.1428571,150 L28.1428571,146.571429 Z M27,152.285714 C26.3688174,152.285714 25.8571429,152.797389 25.8571429,153.428571 C25.8571429,154.059754 26.3688174,154.571429 27,154.571429 C27.6311826,154.571429 28.1428571,154.059754 28.1428571,153.428571 C28.1428571,152.797389 27.6311826,152.285714 27,152.285714 Z" id="感叹号_2"></path>
        </g>
    </g>
</svg>