<?xml version="1.0" encoding="UTF-8"?>
<svg width="666px" height="140px" viewBox="0 0 666 140" version="1.1" xmlns="http://www.w3.org/2000/svg" xmlns:xlink="http://www.w3.org/1999/xlink">
    <!-- Generator: Sketch 48.1 (47250) - http://www.bohemiancoding.com/sketch -->
    <title>文件上传</title>
    <desc>Created with Sketch.</desc>
    <defs>
        <path d="M3,0 L663,0 C664.656854,-3.04359188e-16 666,1.34314575 666,3 L666,137 C666,138.656854 664.656854,140 663,140 L3,140 C1.34314575,140 2.02906125e-16,138.656854 0,137 L0,3 C-2.02906125e-16,1.34314575 1.34314575,3.04359188e-16 3,0 Z" id="path-1"></path>
        <mask id="mask-2" maskContentUnits="userSpaceOnUse" maskUnits="objectBoundingBox" x="0" y="0" width="666" height="140" fill="white">
            <use xlink:href="#path-1"></use>
        </mask>
    </defs>
    <g id="Symbols" stroke="none" stroke-width="1" fill="none" fill-rule="evenodd">
        <g id="文件上传">
            <g>
                <use id="bg" stroke="#CAD2DA" mask="url(#mask-2)" stroke-width="2" fill="#F7F8F9" stroke-dasharray="3" transform="translate(333.000000, 70.000000) scale(-1, 1) translate(-333.000000, -70.000000) " xlink:href="#path-1"></use>
                <g id="Group-17" transform="translate(240.000000, 44.000000)">
                    <path d="M99.3796429,15.1917857 L99.3792857,15.1917857 C99.6750449,15.479023 99.7931703,15.9032925 99.6884047,16.3020441 C99.583639,16.7007958 99.2722243,17.0122105 98.8734727,17.1169761 C98.474721,17.2217417 98.0504515,17.1036163 97.7632143,16.8078571 L95.1428571,14.1875 L95.1428571,26.8571429 C95.1428571,27.4883254 94.6311826,28 94,28 C93.3688174,28 92.8571429,27.4883254 92.8571429,26.8571429 L92.8571429,14.1875 L90.2367857,16.8078571 C89.9495485,17.1036163 89.525279,17.2217417 89.1265273,17.1169761 C88.7277757,17.0122105 88.416361,16.7007958 88.3115953,16.3020441 C88.2068297,15.9032925 88.3249551,15.479023 88.6207143,15.1917857 L93.1921429,10.6203571 C93.6384366,10.1741587 94.3619206,10.1741587 94.8082143,10.6203571 L99.3796429,15.1917857 Z M102.571429,22.8571429 L98.5714286,22.8571429 C97.940246,22.8571429 97.4285714,22.3454683 97.4285714,21.7142857 C97.4285714,21.0831031 97.940246,20.5714286 98.5714286,20.5714286 L102.571429,20.5714286 C105.407143,20.5714286 107.714286,18.2642857 107.714286,15.4285714 C107.714359,12.7481516 105.655712,10.5171349 102.983929,10.3021429 C102.442417,10.2593422 102.005854,9.84129258 101.939643,9.30214286 C101.45,5.30214286 98.0357143,2.28571429 94,2.28571429 C89.9642857,2.28571429 86.55,5.30214286 86.0603571,9.30178571 C85.994146,9.84093543 85.5575827,10.2589851 85.0160714,10.3017857 C82.3441508,10.5167887 80.2854546,12.7480144 80.2857143,15.4285714 C80.2857143,18.2642857 82.5928571,20.5714286 85.4285714,20.5714286 L89.4285714,20.5714286 C90.059754,20.5714286 90.5714286,21.0831031 90.5714286,21.7142857 C90.5714286,22.3454683 90.059754,22.8571429 89.4285714,22.8571429 L85.4285714,22.8571429 C81.3325,22.8571429 78,19.5246429 78,15.4285714 C78.0006447,11.9009309 80.48123,8.85985228 83.9367857,8.15035714 C84.9285714,3.44642857 89.1071429,0 94,0 C98.8928571,0 103.071429,3.44642857 104.063214,8.15035714 C107.51877,8.85985228 109.999355,11.9009309 110,15.4285714 C110,19.5246429 106.6675,22.8571429 102.571429,22.8571429 Z" id="Combined-Shape" fill="#919AA7" fill-rule="nonzero"></path>
                    <text id="将文件拖到此处，或-点击上传" font-family="PingFangSC-Regular, PingFang SC" font-size="14" font-weight="normal">
                        <tspan x="0.169" y="50" fill="#435366">将文件拖到此处，或 </tspan>
                        <tspan x="130.831" y="50" fill="#20A0FF" text-decoration="underline">点击上传</tspan>
                    </text>
                </g>
            </g>
        </g>
    </g>
</svg>