<?xml version="1.0" encoding="UTF-8"?>
<svg width="20px" height="20px" viewBox="0 0 20 20" version="1.1" xmlns="http://www.w3.org/2000/svg" xmlns:xlink="http://www.w3.org/1999/xlink">
    <!-- Generator: Sketch 48.1 (47250) - http://www.bohemiancoding.com/sketch -->
    <title>icon/权限管理</title>
    <desc>Created with Sketch.</desc>
    <defs></defs>
    <g id="Symbols" stroke="none" stroke-width="1" fill="none" fill-rule="evenodd">
        <g id="icon/权限管理" fill="#919AA7" fill-rule="nonzero">
            <path d="M9.08628572,16.7269829 C7.55628571,15.8519285 4,13.543535 4,10.9647498 L4,5.67767124 C4.0196073,5.13255917 4.3573773,4.65255817 4.85714286,4.45959553 C4.91199999,4.44034434 4.94885715,4.42984368 4.98657143,4.42021809 L9.14285714,3.18376626 C9.41286289,3.06206542 9.70484955,2.99946689 10,3.00000484 C10.2953398,2.99936312 10.5874638,3.06258757 10.8571429,3.18551637 L15.0202857,4.4219682 C15.052,4.42984369 15.0828571,4.43859423 15.1137143,4.44909489 C15.605745,4.62327984 15.9510916,5.07701637 15.9948571,5.60679183 L16,10.0695692 L16,10.9629997 C16,13.5925381 12.4,15.8939311 10.8571429,16.761985 C10.5968753,16.9168284 10.3012359,16.9989227 10,16.9999998 C9.67611019,17.000151 9.35898322,16.9053938 9.08628572,16.7269829 Z M5.71428571,6.75836338 L5.71428571,10.7232348 C5.71428571,12.657105 8.25485714,14.3897126 9.34685714,15.0451283 C9.53943918,15.1790039 9.76701011,15.2506531 10,15.2507661 C10.2161705,15.2511295 10.4282444,15.1905685 10.6128571,15.0757552 C11.7168571,14.4264649 14.2865714,12.7026078 14.2865714,10.72761 L14.2865714,6.70936034 C14.25894,6.32705763 14.0214775,5.99376601 13.6737143,5.84918189 L13.588,5.82030509 L10.6145714,4.89187241 C10.4222924,4.79942862 10.2125323,4.75104475 10,4.75011359 C9.7885245,4.74970698 9.57956299,4.79691405 9.38800001,4.88837219 L6.42057143,5.81417971 L6.32714285,5.84305651 C5.97888163,5.98725567 5.74211063,6.32212623 5.71771429,6.70498508 L5.71428571,6.75836338 Z M9.14285714,12.625603 L9.14285714,11.6000393 C8.11557868,11.2292518 7.42872656,10.2377478 7.42857143,9.12538548 C7.42857143,7.67554791 8.57983921,6.50022235 10,6.50022235 C11.4201608,6.50022235 12.5714286,7.67554791 12.5714286,9.12538548 C12.5712734,10.2377478 11.8844213,11.2292518 10.8571429,11.6000393 L10.8571429,12.625603 C10.8571429,13.1088822 10.4733869,13.5006574 10,13.5006574 C9.52661307,13.5006574 9.14285714,13.1088822 9.14285714,12.625603 Z M9.14285714,9.12538548 C9.14285714,9.60866467 9.52661307,10.0004399 10,10.0004399 C10.4733869,10.0004399 10.8571429,9.60866467 10.8571429,9.12538548 C10.8571429,8.64210629 10.4733869,8.2503311 10,8.2503311 C9.52661307,8.2503311 9.14285714,8.64210629 9.14285714,9.12538548 Z" id="Shape"></path>
        </g>
    </g>
</svg>