<?xml version="1.0" encoding="UTF-8"?>
<svg width="12px" height="12px" viewBox="0 0 12 12" version="1.1" xmlns="http://www.w3.org/2000/svg" xmlns:xlink="http://www.w3.org/1999/xlink">
    <!-- Generator: Sketch 48.1 (47250) - http://www.bohemiancoding.com/sketch -->
    <title>标签</title>
    <desc>Created with Sketch.</desc>
    <defs></defs>
    <g id="3.1.3.2.3-版本发布" stroke="none" stroke-width="1" fill="none" fill-rule="evenodd" transform="translate(-418.000000, -338.000000)">
        <g id="Group-24" transform="translate(300.000000, 156.000000)" fill="#919AA7" fill-rule="nonzero">
            <g id="Group-19" transform="translate(79.000000, 176.000000)">
                <g id="Group-18" transform="translate(0.000000, 2.000000)">
                    <g id="标签" transform="translate(39.000000, 4.000000)">
                        <path d="M1.28844071,0 C0.579232104,0 0,0.579185482 0,1.28789635 L0,4.29602601 C0,5.00361128 0.410176165,5.99403574 0.912278892,6.49515733 L6.04086731,11.6237367 C6.54140523,12.1254211 7.36053588,12.1254211 7.86214446,11.6237367 L11.6242157,7.86224315 C12.1252614,7.36062741 12.1252614,6.54086731 11.6242157,6.03981437 L6.49514681,0.911180082 C5.99403239,0.409564338 5.00473392,1.34140945e-08 4.29604693,1.34140945e-08 L1.28844071,0 Z M2.99979581,4.28548388 C2.29002441,4.28548388 1.71416902,3.70960654 1.71416902,2.99983871 C1.71416902,2.29000226 2.29002441,1.71419355 2.99979581,1.71419355 C3.70960839,1.71419355 4.28542259,2.29005716 4.28542259,2.99983871 C4.28542259,3.70959281 3.70960839,4.28548388 2.99979581,4.28548388 Z"></path>
                    </g>
                </g>
            </g>
        </g>
    </g>
</svg>