<?xml version="1.0" encoding="UTF-8"?>
<svg width="20px" height="20px" viewBox="0 0 20 20" version="1.1" xmlns="http://www.w3.org/2000/svg" xmlns:xlink="http://www.w3.org/1999/xlink">
    <!-- Generator: Sketch 48.2 (47327) - http://www.bohemiancoding.com/sketch -->
    <title>icon/标签红</title>
    <desc>Created with Sketch.</desc>
    <defs></defs>
    <g id="Symbols" stroke="none" stroke-width="1" fill="none" fill-rule="evenodd">
        <g id="icon" transform="translate(-558.000000, -157.000000)"></g>
        <g id="icon/标签红" fill="#FF7575" fill-rule="nonzero">
            <g transform="translate(2.000000, 2.000000)">
                <path d="M15.3535534,8.64644661 C15.5488155,8.84170876 15.5488155,9.15829124 15.3535534,9.35355339 L9.35355339,15.3535534 C9.15829124,15.5488155 8.84170876,15.5488155 8.64644661,15.3535534 L0.646446609,7.35355339 C0.55267842,7.2597852 0.5,7.13260824 0.5,7 L0.5,1 C0.5,0.723857625 0.723857625,0.5 1,0.5 L7,0.5 C7.13260824,0.5 7.2597852,0.55267842 7.35355339,0.646446609 L15.3535534,8.64644661 Z M14.2928932,9 L6.79289322,1.5 L1.5,1.5 L1.5,6.79289322 L9,14.2928932 L14.2928932,9 Z" id="Stroke-4734"></path>
                <path d="M4.0862069,4.62068966 C4.0862069,4.916099 4.32528031,5.15517241 4.62068966,5.15517241 C4.916099,5.15517241 5.15517241,4.916099 5.15517241,4.62068966 C5.15517241,4.32528031 4.916099,4.0862069 4.62068966,4.0862069 C4.32528031,4.0862069 4.0862069,4.32528031 4.0862069,4.62068966 Z M3.0862069,4.62068966 C3.0862069,3.77299556 3.77299556,3.0862069 4.62068966,3.0862069 C5.46838375,3.0862069 6.15517241,3.77299556 6.15517241,4.62068966 C6.15517241,5.46838375 5.46838375,6.15517241 4.62068966,6.15517241 C3.77299556,6.15517241 3.0862069,5.46838375 3.0862069,4.62068966 Z" id="Stroke-4735"></path>
            </g>
        </g>
    </g>
</svg>