<?xml version="1.0" encoding="UTF-8"?>
<svg width="20px" height="20px" viewBox="0 0 20 20" version="1.1" xmlns="http://www.w3.org/2000/svg" xmlns:xlink="http://www.w3.org/1999/xlink">
    <!-- Generator: Sketch 47.1 (45422) - http://www.bohemiancoding.com/sketch -->
    <title>icon/派生</title>
    <desc>Created with Sketch.</desc>
    <defs></defs>
    <g id="Symbols" stroke="none" stroke-width="1" fill="none" fill-rule="evenodd">
        <g id="icon/派生" fill-rule="nonzero" fill="#e48181">
            <path d="M5.00016576,5.7320271 C4.21624153,5.2794243 3.83404573,4.35671397 4.06832814,3.48235249 C4.30261055,2.60799102 5.09495297,2 6.00015069,2 C6.90534842,2 7.69769084,2.60799102 7.93197325,3.48235249 C8.16625566,4.35671397 7.78405986,5.2794243 7.00013563,5.7320271 L7.00013563,10.2619983 C7.82370704,9.61120305 8.7998966,9.18162083 9.83609293,9.01400626 C12.3670548,8.59200894 13.6090361,7.90801327 13.9200314,6.68402105 C13.160871,6.19704816 12.8215802,5.26219977 13.0916802,4.40166398 C13.3617802,3.54112819 14.1744326,2.96785133 15.0757056,3.00205471 C15.9769786,3.03625808 16.7438452,3.66947778 16.9479486,4.54800962 C17.152052,5.42654145 16.7428852,6.33298583 15.9490008,6.76102058 C15.6150059,9.16400532 13.6300358,10.4089974 10.164088,10.9859937 C8.19611763,11.3139916 7.00013563,12.8699818 7.00013563,13.9999746 L7.00013563,14.2679729 C7.78405986,14.7205757 8.16625566,15.643286 7.93197325,16.5176475 C7.69769084,17.392009 6.90534842,18 6.00015069,18 C5.09495297,18 4.30261055,17.392009 4.06832814,16.5176475 C3.83404573,15.643286 4.21624153,14.7205757 5.00016576,14.2679729 L5.00016576,5.7320271 Z M5.00016576,3.00004446 L5.00016576,5.00003176 L7.00013563,5.00003176 L7.00013563,3.00004446 L5.00016576,3.00004446 Z M5.00016576,14.9999682 L5.00016576,16.9999555 L7.00013563,16.9999555 L7.00013563,14.9999682 L5.00016576,14.9999682 Z M14.0000302,4.00003811 L14.0000302,6.00002541 L16.0000001,6.00002541 L16.0000001,4.00003811 L14.0000302,4.00003811 L14.0000302,4.00003811 Z" id="Shape"></path>
        </g>
    </g>
</svg>