<?xml version="1.0" encoding="UTF-8"?>
<svg width="14px" height="13px" viewBox="0 0 14 13" version="1.1" xmlns="http://www.w3.org/2000/svg" xmlns:xlink="http://www.w3.org/1999/xlink">
    <!-- Generator: Sketch 47.1 (45422) - http://www.bohemiancoding.com/sketch -->
    <title>评论</title>
    <desc>Created with Sketch.</desc>
    <defs></defs>
    <g id="页面" stroke="none" stroke-width="1" fill="none" fill-rule="evenodd">
        <g id="2-工单管理---合并请求" transform="translate(-1443.000000, -255.000000)" fill="#919AA7">
            <g id="右侧内容" transform="translate(550.000000, 70.000000)">
                <g id="Repeat-Group" transform="translate(20.000000, 76.000000)">
                    <g id="Group-10" transform="translate(0.000000, 102.000000)">
                        <g id="Group-6">
                            <g id="Group-5">
                                <g id="Group-7" transform="translate(873.000000, 3.000000)">
                                    <path d="M10,9 L4,9 L4,8 L10,8 L10,9 Z M8,12 L4,12 L4,11 L8,11 L8,12 Z M7,4 C3.15,4 0,6.65909091 0,9.90909091 C0,13.1590909 3.15,15.8181818 7,15.8181818 C7.58333333,15.8181818 8.16666667,15.7590909 8.75,15.6409091 C8.75,15.6409091 12.1333333,17 12.25,17 C12.3666667,17 12.4833333,16.9409091 12.6,16.8818182 C12.775,16.7636364 12.5416667,13.5727273 12.5416667,13.5727273 C13.475,12.5090909 14,11.2090909 14,9.90909091 C14,6.65909091 10.85,4 7,4 Z" id="评论"></path>
                                </g>
                            </g>
                        </g>
                    </g>
                </g>
            </g>
        </g>
    </g>
</svg>