<?xml version="1.0" encoding="UTF-8"?>
<svg width="16px" height="21px" viewBox="0 0 16 21" version="1.1" xmlns="http://www.w3.org/2000/svg" xmlns:xlink="http://www.w3.org/1999/xlink">
    <!-- Generator: Sketch 47.1 (45422) - http://www.bohemiancoding.com/sketch -->
    <title>锁icon</title>
    <desc>Created with Sketch.</desc>
    <defs></defs>
    <g id="页面" stroke="none" stroke-width="1" fill="none" fill-rule="evenodd">
        <g id="02_个人_仓库列表" transform="translate(-348.000000, -919.000000)" fill-rule="nonzero" fill="#FFFFFF">
            <g id="内容" transform="translate(300.000000, 190.000000)">
                <g id="Repeat-Group" transform="translate(20.000000, 74.000000)">
                    <g id="Group-6" transform="translate(0.000000, 629.000000)">
                        <path d="M35.9999728,38.1153931 C36.8800087,38.1153931 37.6000109,38.8423172 37.6000109,39.7307861 C37.6000109,40.2961655 37.2799978,40.8514688 36.7999782,41.093786 L36.7999782,42.9615723 C36.7999782,43.4461792 36.4799924,43.7692688 36,43.7692688 C35.5200076,43.7692688 35.1999674,43.4461792 35.1999674,42.9615723 L35.1999674,41.093786 C34.7200022,40.8514688 34.3999891,40.2961929 34.3999891,39.7307861 C34.3999891,38.8423172 35.1200185,38.1153931 36,38.1153931 L35.9999728,38.1153931 Z M35.9999728,26 C33.3409384,26 31.1999946,28.1615265 31.1999946,30.8461792 L31.1999946,34.0769379 C29.4400044,34.0769379 28,35.5307861 28,37.3076965 L28,43.7692413 C28,45.5461792 29.4400044,47 31.1999946,47 L40.8000054,47 C42.5599956,47 44,45.5461517 44,43.7692413 L44,37.3076965 C44,35.5307861 42.5599956,34.0769379 40.8000054,34.0769379 L32.8000054,34.0769379 L32.8000054,30.8461792 C32.8000054,29.0076874 34.1790692,27.6153931 36,27.6153931 C37.820958,27.6153931 39.1999946,29.0077148 39.1999946,30.8461792 L39.1999946,34.0769379 L40.8000054,34.0769379 L40.8000054,30.8461792 C40.8000054,28.1615539 38.6590616,26 36,26 L35.9999728,26 Z" id="锁icon"></path>
                    </g>
                </g>
            </g>
        </g>
    </g>
</svg>