<?xml version="1.0" encoding="UTF-8"?>
<svg width="44px" height="44px" viewBox="0 0 44 44" version="1.1" xmlns="http://www.w3.org/2000/svg" xmlns:xlink="http://www.w3.org/1999/xlink">
    <!-- Generator: Sketch 48.2 (47327) - http://www.bohemiancoding.com/sketch -->
    <title>icon/常用框架/pygame_icon</title>
    <desc>Created with Sketch.</desc>
    <defs>
        <linearGradient x1="-93.8434103%" y1="25.9440104%" x2="132.379416%" y2="77.4739583%" id="linearGradient-1">
            <stop stop-color="#8FF379" offset="0%"></stop>
            <stop stop-color="#1CBDB4" offset="100%"></stop>
        </linearGradient>
    </defs>
    <g id="Symbols" stroke="none" stroke-width="1" fill="none" fill-rule="evenodd">
        <g id="icon" transform="translate(-428.000000, -320.000000)"></g>
        <g id="icon/常用框架/pygame_icon" fill="url(#linearGradient-1)" fill-rule="nonzero">
            <path d="M32.8590419,25.4693087 C32.1406781,18.8032996 30.8233286,14 26.6436935,14 C24.4948849,14 23.4511979,16.2580044 21.4999568,16.4358511 C19.5487158,16.2580044 18.5050287,14 16.3562202,14 C12.175887,14 10.8592356,18.8032996 10.1408717,25.4693087 C9.75481224,29.0485625 10.0759467,32.0136334 12.1961324,31.9999528 C15.1868718,31.9999528 15.3041557,29.1896878 17.4089828,27.8979595 C18.2146115,27.482504 20.0220401,27.3068174 21.4999568,27.2384149 C22.9778736,27.3068174 24.7853022,27.482504 25.5909309,27.8979595 C27.6964561,29.1896878 27.8130419,31.9999528 30.8037813,31.9999528 C32.9246651,32.0136334 33.2451014,29.0485625 32.8590419,25.4693087 Z M16.4246358,24.8716864 C14.7763782,24.8716864 13.4408776,23.4942749 13.4408776,21.7957314 C13.4408776,20.0971879 14.7770763,18.7197764 16.4246358,18.7197764 C18.0721953,18.7197764 19.408394,20.0971879 19.408394,21.7957314 C19.408394,23.4942749 18.0721953,24.8716864 16.4246358,24.8716864 Z M29.8557364,22.4113544 L27.5114547,22.4113544 L27.5114547,24.8284848 L26.3749179,24.8284848 L26.3749179,22.4113544 L24.0306362,22.4113544 L24.0306362,21.2398706 L26.3749179,21.2398706 L26.3749179,18.8227403 L27.5114547,18.8227403 L27.5114547,21.2398706 L29.8557364,21.2398706 L29.8557364,22.4113544 Z M16.4246358,20.0381457 C15.97784,20.0381457 15.5345348,20.2275128 15.2189853,20.552965 C14.9034358,20.8784171 14.7198306,21.3356342 14.7198306,21.7957314 C14.7198306,22.2558286 14.9034357,22.7130457 15.2189853,23.0384979 C15.5345348,23.36395 15.9785381,23.5533171 16.4246358,23.5533171 C16.8707335,23.5533171 17.3147368,23.3639501 17.6302863,23.0384979 C17.9458359,22.7130457 18.129441,22.2558286 18.129441,21.7957314 C18.129441,21.3356342 17.9458359,20.8784171 17.6302863,20.552965 C17.3140387,20.2275128 16.8707335,20.0381457 16.4246358,20.0381457 Z" id="Shape"></path>
        </g>
    </g>
</svg>