<?xml version="1.0" encoding="UTF-8"?>
<svg width="20px" height="20px" viewBox="0 0 20 20" version="1.1" xmlns="http://www.w3.org/2000/svg" xmlns:xlink="http://www.w3.org/1999/xlink">
    <!-- Generator: Sketch 48.2 (47327) - http://www.bohemiancoding.com/sketch -->
    <title>icon/导航/个人信息</title>
    <desc>Created with Sketch.</desc>
    <defs></defs>
    <g id="Symbols" stroke="none" stroke-width="1" fill="none" fill-rule="evenodd">
        <g id="icon" transform="translate(-506.000000, -217.000000)"></g>
        <g id="icon/导航/个人信息" fill="#465364">
            <path d="M16.8303441,14.5041672 C16.8799995,14.6785485 16.921379,14.8919092 16.9524136,15.1401462 C16.9834482,15.3904347 17,15.6427747 17,15.8971663 C17,16.1536094 16.9813792,16.3936402 16.9441377,16.6172586 C16.9068962,16.840877 16.8489649,17.0111553 16.7744818,17.1219387 C16.7248265,17.1957943 16.5758603,17.2717015 16.3317214,17.3455571 C16.0855135,17.4194127 15.7813743,17.4891653 15.4172349,17.5507116 C15.0530955,17.612258 14.6496456,17.6717528 14.2089541,17.7291961 C13.7682627,17.7845878 13.3255022,17.8317733 12.8786039,17.8687011 C12.4317055,17.9056289 12.0013589,17.9364021 11.5854951,17.9630722 C11.1696314,17.9876907 10.805492,18 10.4910079,18 C10.1765239,18 9.81445344,17.9876907 9.40479659,17.9630722 C8.99513975,17.9384536 8.57100009,17.9076805 8.13030863,17.8687011 C7.68961718,17.8317733 7.25513265,17.7907424 6.82892401,17.74766 C6.4006464,17.7045775 6.00754135,17.6532889 5.64960885,17.5978972 C5.29167636,17.5425054 4.98960616,17.4850622 4.74339826,17.4296705 C4.49719036,17.3742788 4.34408628,17.3209386 4.28201707,17.26965 C4.18063734,17.1814335 4.09994736,16.9208873 4.03580916,16.4839082 C3.97373995,16.0469291 3.99236071,15.4848057 4.09167146,14.7995897 C4.15374068,14.3995384 4.31512065,14.1000128 4.57374239,13.901013 C4.83236414,13.7020131 5.13650331,13.539941 5.48822888,13.4147968 C5.83995446,13.2896525 6.2020249,13.1809206 6.57444021,13.0865496 C6.94478655,12.9921785 7.27582239,12.8526734 7.56547874,12.6659828 C7.7909969,12.51622 7.96479072,12.3787665 8.08479121,12.2536223 C8.20479169,12.128478 8.2916886,12.0033338 8.34961987,11.8802411 C8.40548217,11.7550968 8.4344478,11.6237979 8.4344478,11.4863444 C8.4344478,11.3488909 8.42824088,11.1929735 8.41582704,11.0185921 C8.39099935,10.7683036 8.30203347,10.5734068 8.15099837,10.4297987 C7.99996327,10.2861905 7.83651433,10.1466855 7.66065154,10.009232 C7.57168566,9.93537633 7.49306465,9.82869599 7.42478851,9.69124247 C7.35651237,9.55378895 7.29651213,9.41633543 7.24478778,9.27888191 C7.1951324,9.12911912 7.14340805,8.96089242 7.09375268,8.77420182 C7.01926962,8.74958328 6.94271758,8.71265547 6.86823452,8.66136684 C6.8061653,8.61212976 6.73995813,8.53622259 6.66961302,8.43774843 C6.60133688,8.33722272 6.53512971,8.1997692 6.47099152,8.02538787 C6.4089223,7.85100654 6.38202564,7.68483139 6.39650845,7.52891396 C6.4089223,7.37299654 6.43995691,7.24580074 6.49168126,7.14527504 C6.54133663,7.02013079 6.61168175,6.90729581 6.69857865,6.80882164 C6.68616481,6.40877036 6.70478557,6.00461598 6.75444095,5.59225542 C6.80409632,5.24349276 6.88271733,4.87831773 6.99030398,4.49673035 C7.09789063,4.11719451 7.26340854,3.76432876 7.49099568,3.44018464 C7.69168615,3.14065906 7.91927329,2.8965252 8.16961914,2.70983459 C8.42203396,2.52314399 8.67858673,2.37543275 8.9434154,2.27080395 C9.20824407,2.16412361 9.47100376,2.09231953 9.73583243,2.05539172 C10.0006611,2.01846391 10.2510069,2 10.4910079,2 C11.1323898,2 11.7054956,2.13129888 12.2082563,2.39389665 C12.711017,2.65649442 13.0834323,2.9375561 13.3213643,3.23503013 C13.5986068,3.57148352 13.8034352,3.94896782 13.9337806,4.36748301 C14.0661949,4.7859982 14.1634367,5.17579177 14.2255059,5.5368637 C14.2875751,5.96153353 14.3144718,6.38620336 14.299989,6.80882164 C14.3620582,6.85805873 14.4199895,6.92781126 14.4696448,7.01397615 C14.5068864,7.08783177 14.5420589,7.18630594 14.5730935,7.30324401 C14.6041282,7.42223362 14.6082661,7.56789332 14.5834384,7.74227465 C14.5586107,7.96589306 14.5089554,8.14848057 14.4324033,8.28593409 C14.3579203,8.42338761 14.2813682,8.53006796 14.2068852,8.60392358 C14.1179193,8.69214002 14.0186085,8.74753173 13.904815,8.77215028 C13.8551596,8.95884088 13.8034352,9.12706757 13.7537799,9.27683036 C13.7041245,9.41428388 13.6399863,9.5517374 13.5655032,9.68919092 C13.4910202,9.82664444 13.4082612,9.92717015 13.3192953,9.9887165 C13.2179156,10.0769329 13.1268807,10.1507886 13.0461908,10.2123349 C12.9634318,10.2738813 12.8930867,10.3395307 12.8289485,10.4092832 C12.7668793,10.4769842 12.713086,10.5549429 12.6675685,10.6431594 C12.6241201,10.7313758 12.5889475,10.8360046 12.5641198,10.9611489 C12.5392921,11.1232209 12.5289473,11.2893961 12.5351542,11.4576228 C12.5413611,11.6258495 12.5827406,11.7920246 12.6572237,11.9540967 C12.7317067,12.1161687 12.8558452,12.2720862 13.025501,12.421849 C13.1951569,12.5716117 13.4310199,12.7029106 13.7330901,12.8157456 C13.9979188,12.9285806 14.2896441,13.0250032 14.6103351,13.1050135 C14.931026,13.1870753 15.2393032,13.2834979 15.5351664,13.3942813 C15.8310297,13.5071163 16.0958584,13.6507245 16.3275835,13.8251058 C16.5613775,14.0056417 16.7289644,14.2292602 16.8303441,14.5041672 Z" id="Shape"></path>
        </g>
    </g>
</svg>