<?xml version="1.0" encoding="UTF-8"?>
<svg width="20px" height="20px" viewBox="0 0 20 20" version="1.1" xmlns="http://www.w3.org/2000/svg" xmlns:xlink="http://www.w3.org/1999/xlink">
    <!-- Generator: Sketch 48.2 (47327) - http://www.bohemiancoding.com/sketch -->
    <title>icon/导航/创建组织</title>
    <desc>Created with Sketch.</desc>
    <defs></defs>
    <g id="Symbols" stroke="none" stroke-width="1" fill="none" fill-rule="evenodd">
        <g id="icon" transform="translate(-480.000000, -217.000000)"></g>
        <g id="icon/导航/创建组织" fill="#465364" fill-rule="nonzero">
            <path d="M9.40717435,12.1235479 C9.38632219,12.2399305 9.360257,12.3302573 9.32724108,12.3927912 C9.29596285,12.4553252 9.22124263,12.5248073 9.10481809,12.5995006 C8.83026472,12.7679948 8.53485918,12.905222 8.21686382,13.0111823 C7.90060613,13.1171425 7.5965122,13.2335251 7.30458202,13.36033 C7.01438953,13.4871349 6.76068831,13.6538921 6.54347835,13.8588644 C6.3262684,14.0655738 6.19246707,14.3573988 6.13859901,14.7378135 C6.11774685,14.8541961 6.10384541,14.9671045 6.09863238,15.078276 C6.09341934,15.1894474 6.08473094,15.2919336 6.07430486,15.3874715 C6.06387878,15.4083161 6.05345271,15.4274237 6.04302663,15.4430572 C6.03260055,15.4586907 6.02217447,15.4777983 6.0117484,15.4986429 C5.59991833,15.467376 5.18287522,15.4291608 4.7588814,15.3874715 C4.33662525,15.3457822 3.94738502,15.2971447 3.59463606,15.2450331 C3.24014942,15.1929215 2.94126853,15.1390728 2.69973107,15.0869612 C2.45645592,15.0348496 2.30354012,14.981001 2.23924597,14.9288894 C2.14367359,14.8541961 2.07242873,14.6335903 2.02551138,14.2635979 C1.97859403,13.8936055 1.99597082,13.4124416 2.08111713,12.8218434 C2.13324751,12.4935403 2.26878652,12.2434046 2.48599647,12.0696993 C2.70320642,11.8959939 2.95864533,11.7587667 3.25405086,11.6580176 C3.54945639,11.5572685 3.85355032,11.4652046 4.16633265,11.380089 C4.4773773,11.2949734 4.75540604,11.1785908 4.99868118,11.0309413 C5.18808826,10.9041364 5.33405335,10.7877538 5.43483877,10.6817935 C5.53562418,10.5758332 5.60686905,10.4681359 5.64857336,10.3569645 C5.69027767,10.2457931 5.71112982,10.1328846 5.71112982,10.016502 C5.71112982,9.90011942 5.70591678,9.77331452 5.69549071,9.63608729 C5.67463855,9.42416676 5.60339369,9.25914667 5.48175612,9.13755293 C5.36011854,9.01595918 5.22631721,8.89262838 5.07687677,8.76582347 C4.99173047,8.71371187 4.9204856,8.62859624 4.86314218,8.51221366 C4.80579875,8.39583107 4.75540604,8.27944849 4.71196405,8.1630659 C4.67025974,8.03626099 4.62681775,7.8938226 4.58511344,7.73575073 C4.52255697,7.71490609 4.45826283,7.68363913 4.39570636,7.64021279 C4.34357597,7.5985235 4.28797023,7.53425252 4.22888912,7.45087396 C4.17154569,7.36575833 4.11593994,7.24937575 4.06207188,7.1017262 C4.00994149,6.95407665 3.98735165,6.81337531 3.99951541,6.68135924 C4.00994149,6.54934318 4.03600668,6.4364347 4.07944867,6.34089675 C4.12115298,6.22451417 4.18023409,6.12897622 4.25321663,6.05601998 C4.24279056,5.71729454 4.25842967,5.375095 4.30013398,5.02594724 C4.34183829,4.74107046 4.41134548,4.43361199 4.50691786,4.10704592 C4.60249023,3.77874281 4.74497996,3.48344371 4.93438704,3.21941157 C5.10294196,2.96580176 5.29408672,2.75909239 5.50434595,2.60102052 C5.71634286,2.44294865 5.93007745,2.31788079 6.14554973,2.22929107 C6.36275968,2.13896428 6.58170731,2.07816741 6.8041303,2.04690045 C7.02655329,2.01563348 7.24202556,2 7.45402247,2 C7.98227707,2 8.45840128,2.11117143 8.88065743,2.33351428 C9.30291357,2.55585713 9.62090894,2.79383346 9.83116817,3.04570622 C9.96844486,3.22462273 10.0553288,3.39137987 10.0935578,3.54424058 C10.1300491,3.69710129 10.1804418,3.87428075 10.2447359,4.07577896 C10.0431651,4.19216155 9.82943049,4.36412984 9.60353214,4.5899468 C9.37589611,4.81750081 9.17780064,5.04679188 9.00924572,5.27955705 C8.7972488,5.57485615 8.63911996,5.90315927 8.5331215,6.26272935 C8.42712305,6.62229942 8.34892747,6.95407665 8.2950594,7.26153512 C8.24292901,7.63152752 8.21512614,8.00151992 8.21512614,8.37151232 C8.12997984,8.46705027 8.06742337,8.57301053 8.02571906,8.68765606 C7.98401475,8.79361633 7.95621187,8.91694713 7.9457858,9.05938552 C7.93535972,9.20182391 7.95621187,9.35815872 8.00834226,9.52665291 C8.06047265,9.70556943 8.11955376,9.84279666 8.18211022,9.9383346 C8.24466669,10.0338725 8.3037478,10.1068288 8.35587818,10.1606775 C8.41843465,10.2232114 8.4827288,10.2666377 8.54528526,10.2874824 C8.58698957,10.4559765 8.63043156,10.6157855 8.67213587,10.763435 C8.71384018,10.8902399 8.76423289,11.0187819 8.823314,11.150798 C8.88065743,11.282814 8.95190229,11.380089 9.03704859,11.44436 C9.11176881,11.5068939 9.16911224,11.5607426 9.21081655,11.6024319 C9.25252086,11.6441212 9.28727445,11.6840734 9.31333965,11.7205515 C9.33940484,11.7570296 9.35504396,11.8074042 9.360257,11.8716752 C9.37415843,11.9342091 9.38632219,12.0193247 9.40717435,12.1235479 Z M17.8575103,15.0400608 C17.8992146,15.1877103 17.9339682,15.3683639 17.9600334,15.5785474 C17.9860986,15.7904679 18,16.0041255 18,16.2195201 C18,16.4366518 17.9843609,16.6398871 17.9530827,16.8292259 C17.9218044,17.0185648 17.8731494,17.1627402 17.8105929,17.2565411 C17.7688886,17.319075 17.6437757,17.383346 17.4387295,17.4458799 C17.2319456,17.5084139 16.9765067,17.5674737 16.6706751,17.6195853 C16.3648435,17.6716969 16.025996,17.7220714 15.6558702,17.7707089 C15.2857445,17.8176094 14.913881,17.8575616 14.5385422,17.8888286 C14.1632034,17.9200955 13.8017661,17.9461513 13.4524925,17.968733 C13.1032189,17.9895777 12.7973873,18 12.53326,18 C12.2691327,18 11.9650387,17.9895777 11.6209782,17.968733 C11.2769176,17.9478884 10.9206933,17.9218326 10.5505675,17.8888286 C10.1804418,17.8575616 9.81552905,17.8228205 9.45756705,17.7863424 C9.09786738,17.7498643 8.76770825,17.706438 8.46708968,17.6595375 C8.16647111,17.6126371 7.91276988,17.5639996 7.70598601,17.5170991 C7.49920214,17.4701987 7.37061385,17.4250353 7.31848346,17.3816089 C7.23333716,17.3069156 7.16556765,17.0863098 7.11169959,16.7163174 C7.0595692,16.346325 7.07520831,15.8703724 7.15861694,15.2901965 C7.21074732,14.9514711 7.34628633,14.6978613 7.56349628,14.5293671 C7.78070623,14.3608729 8.03614514,14.2236456 8.33155067,14.1176854 C8.6269562,14.0117251 8.93105013,13.9196613 9.24383246,13.8397568 C9.55487711,13.7598524 9.83290585,13.6417327 10.076181,13.4836608 C10.2655881,13.3568559 10.4115532,13.2404733 10.5123386,13.1345131 C10.613124,13.0285528 10.6861065,12.9225926 10.7347616,12.8183693 C10.7816789,12.7124091 10.8060064,12.6012377 10.8060064,12.4848551 C10.8060064,12.3684725 10.8007934,12.2364564 10.7903673,12.0888069 C10.7695152,11.8768863 10.6947949,11.7118662 10.5679443,11.5902725 C10.4410937,11.4686788 10.303817,11.3505591 10.1561143,11.2341765 C10.081394,11.1716426 10.0153622,11.0813158 9.95801878,10.9649332 C9.90067535,10.8485506 9.85028265,10.7321681 9.80684066,10.6157855 C9.76513635,10.4889806 9.72169436,10.3465422 9.67999004,10.1884703 C9.61743358,10.1676257 9.55313943,10.1363587 9.49058297,10.0929324 C9.43845258,10.0512431 9.38284683,9.9869721 9.32376573,9.90359353 C9.2664223,9.81847791 9.21081655,9.70209532 9.15694848,9.55444577 C9.10481809,9.40679622 9.08222826,9.26609489 9.09439202,9.13407882 C9.10481809,9.00206275 9.13088329,8.89436543 9.17432528,8.80924981 C9.21602959,8.70328955 9.2751107,8.6077516 9.34809324,8.52437303 C9.33766716,8.1856476 9.35330628,7.84344805 9.39501059,7.49430029 C9.4367149,7.19900119 9.50274672,6.88980567 9.59310606,6.56671371 C9.6834654,6.24535881 9.82247977,5.9465856 10.0136245,5.67213115 C10.1821795,5.41852133 10.3733242,5.21181196 10.5835834,5.05374009 C10.7955804,4.89566822 11.0110526,4.77060037 11.2334756,4.68201064 C11.4558986,4.59168386 11.6765839,4.53088698 11.8990069,4.49962002 C12.1214299,4.46835306 12.3316891,4.45271957 12.53326,4.45271957 C13.0719406,4.45271957 13.5532779,4.563891 13.975534,4.78623385 C14.3977902,5.0085767 14.7105725,5.24655303 14.9104057,5.4984258 C15.1432547,5.78330257 15.315285,6.10292042 15.4247588,6.45727934 C15.5359703,6.81163826 15.6176413,7.14167843 15.6697716,7.44739985 C15.721902,7.80696993 15.7444919,8.16654001 15.7323281,8.52437303 C15.7844585,8.56606232 15.8331135,8.62512214 15.8748178,8.69807838 C15.9060961,8.76061231 15.9356366,8.84399088 15.9617018,8.94300293 C15.987767,9.04375204 15.9912424,9.16708284 15.9703902,9.31473239 C15.9495381,9.50407122 15.9078338,9.65866898 15.8435396,9.77505157 C15.7809831,9.89143415 15.716689,9.98176094 15.6541325,10.0442949 C15.5794123,10.1189882 15.4960037,10.1658886 15.4004313,10.1867333 C15.358727,10.3448051 15.315285,10.4872435 15.2735807,10.6140484 C15.2318764,10.730431 15.1780083,10.8468136 15.1154519,10.9631962 C15.0528954,11.0795788 14.9833882,11.1646944 14.908668,11.216806 C14.8235217,11.2914993 14.7470638,11.3540332 14.6792943,11.4061448 C14.6097871,11.4582564 14.550706,11.5138421 14.4968379,11.572902 C14.4447075,11.6302247 14.3995279,11.6962328 14.3612989,11.7709261 C14.3248076,11.8456194 14.2952671,11.9342091 14.2744149,12.0401694 C14.2535628,12.1773966 14.2448744,12.3180979 14.2500874,12.4605363 C14.2553004,12.6029747 14.290054,12.743676 14.3526105,12.8809033 C14.415167,13.0181305 14.5194277,13.1501466 14.6619175,13.2769515 C14.8044072,13.4037564 15.0025027,13.5149278 15.2562039,13.6104657 C15.4786269,13.7060037 15.7236397,13.7876452 15.9929801,13.8553903 C16.2623204,13.9248724 16.5212347,14.006514 16.7697228,14.1003148 C17.018211,14.1958528 17.240634,14.3174465 17.4352541,14.4650961 C17.6316119,14.6179568 17.772364,14.8072956 17.8575103,15.0400608 Z" id="Combined-Shape"></path>
        </g>
    </g>
</svg>