<?xml version="1.0" encoding="UTF-8"?>
<svg width="20px" height="20px" viewBox="0 0 20 20" version="1.1" xmlns="http://www.w3.org/2000/svg" xmlns:xlink="http://www.w3.org/1999/xlink">
    <!-- Generator: Sketch 48.2 (47327) - http://www.bohemiancoding.com/sketch -->
    <title>icon/导航/帮助</title>
    <desc>Created with Sketch.</desc>
    <defs></defs>
    <g id="Symbols" stroke="none" stroke-width="1" fill="none" fill-rule="evenodd">
        <g id="icon" transform="translate(-558.000000, -217.000000)"></g>
        <g id="icon/导航/帮助">
            <g id="Group" transform="translate(2.000000, 2.000000)">
                <path d="M8.66666667,8.57866667 L8.66666667,10 L7.33333333,10 L7.33333333,8 C7.33333333,7.632 7.63133333,7.33333333 8,7.33333333 C8.71,7.33333333 9.33333333,6.71 9.33333333,6 C9.33333333,5.29 8.71,4.66666667 8,4.66666667 C7.45866667,4.66666667 6.93866667,5.11466667 6.74933333,5.548 C6.602,5.88466667 6.21266667,6.04 5.872,5.892 C5.53466667,5.74466667 5.38,5.35133333 5.528,5.014 C5.95333333,4.04066667 6.99266667,3.33333333 8,3.33333333 C9.44533333,3.33333333 10.6666667,4.55466667 10.6666667,6 C10.6666667,7.216 9.802,8.274 8.66666667,8.57866667 M8,12.6666667 C7.632,12.6666667 7.33333333,12.368 7.33333333,12 C7.33333333,11.632 7.632,11.3333333 8,11.3333333 C8.368,11.3333333 8.66666667,11.632 8.66666667,12 C8.66666667,12.368 8.368,12.6666667 8,12.6666667" id="Fill-235" fill="#465364"></path>
                <circle id="Oval-4" stroke="#465364" stroke-width="2" cx="8" cy="8" r="8"></circle>
            </g>
        </g>
    </g>
</svg>