<?xml version="1.0" encoding="UTF-8"?>
<svg width="20px" height="20px" viewBox="0 0 20 20" version="1.1" xmlns="http://www.w3.org/2000/svg" xmlns:xlink="http://www.w3.org/1999/xlink">
    <!-- Generator: Sketch 48.2 (47327) - http://www.bohemiancoding.com/sketch -->
    <title>icon/导航/迁移</title>
    <desc>Created with Sketch.</desc>
    <defs></defs>
    <g id="Symbols" stroke="none" stroke-width="1" fill="none" fill-rule="evenodd">
        <g id="icon" transform="translate(-454.000000, -217.000000)"></g>
        <g id="icon/导航/迁移" fill="#465364" fill-rule="nonzero">
            <path d="M5.94736843,4.18181818 L5.94736843,3.09090909 C5.94736843,2.48841664 6.4422116,2 7.05263158,2 L12.5789474,2 L17,6.36363637 L17,14.7272727 C17,15.3297652 16.5051568,15.8181818 15.8947368,15.8181818 L14.7894737,15.8181818 L14.7894737,16.9090909 C14.7894737,17.5115834 14.2946305,18 13.6842105,18 L4.10526316,18 C3.81212914,18 3.53100113,17.8850653 3.32372408,17.6804801 C3.11644703,17.475895 3,17.198418 3,16.9090909 L3,5.27272728 C3,4.9834002 3.11644703,4.7059232 3.32372408,4.50133806 C3.53100113,4.29675292 3.81212914,4.18181818 4.10526316,4.18181818 L5.94736843,4.18181818 Z M5.94736843,5.63636363 L4.47368422,5.63636363 L4.47368422,16.5454546 L13.3157895,16.5454546 L13.3157895,15.8181818 L7.05263158,15.8181818 C6.4422116,15.8181818 5.94736843,15.3297652 5.94736843,14.7272727 L5.94736843,5.63636363 Z M12.5789474,3.45454545 L12.5789474,5.63636363 C12.5789474,6.03802527 12.9088428,6.36363637 13.3157895,6.36363637 L15.5263158,6.36363637 L12.5789474,3.45454545 Z M9.63157894,8.54545455 C9.22467634,8.54551604 8.89484964,8.87110912 8.89484964,9.27272728 C8.89484964,9.67434543 9.22467634,9.99993852 9.63157894,10 L13.3157895,10 C13.7226921,9.99993852 14.0525188,9.67434543 14.0525188,9.27272728 C14.0525188,8.87110912 13.7226921,8.54551604 13.3157895,8.54545455 L9.63157894,8.54545455 Z M9.63157894,11.4545454 C9.2246323,11.4545455 8.89473686,11.7801566 8.89473686,12.1818182 C8.89473686,12.5834798 9.2246323,12.9090909 9.63157894,12.9090909 L13.3157895,12.9090909 C13.7227361,12.9090909 14.0526316,12.5834798 14.0526316,12.1818182 C14.0526316,11.7801566 13.7227361,11.4545455 13.3157895,11.4545454 L9.63157894,11.4545454 Z" id="Shape"></path>
        </g>
    </g>
</svg>