<?xml version="1.0" encoding="UTF-8"?>
<svg width="20px" height="20px" viewBox="0 0 20 20" version="1.1" xmlns="http://www.w3.org/2000/svg" xmlns:xlink="http://www.w3.org/1999/xlink">
    <!-- Generator: Sketch 47.1 (45422) - http://www.bohemiancoding.com/sketch -->
    <title>icon/附件/普通文件</title>
    <desc>Created with Sketch.</desc>
    <defs></defs>
    <g id="Symbols" stroke="none" stroke-width="1" fill="none" fill-rule="evenodd">
        <g id="icon/附件/普通文件" fill-rule="nonzero" fill="#308EFF">
            <g id="图片文件" transform="translate(3.000000, 3.000000)">
                <path d="M1.55555556,0 L12.4444444,0 C13.3035541,5.26052919e-17 14,0.696445946 14,1.55555556 L14,12.4444444 C14,13.3035541 13.3035541,14 12.4444444,14 L1.55555556,14 C0.696445946,14 8.68253202e-16,13.3035541 0,12.4444444 L0,1.55555556 C1.05210584e-16,0.696445946 0.696445946,-5.26052919e-17 1.55555556,0 Z M7.24966666,7.94227778 C6.72544444,6.62627778 5.92238888,4.81172222 5.48333334,4.816 C4.79461112,4.823 3.15233334,9.26177778 3.15233334,9.26177778 C3.02205556,9.59933334 3.21066668,9.87194444 3.57038888,9.87272222 L7.32861112,9.88516666 C7.36944446,9.88516666 7.40833334,9.88205554 7.44488888,9.87505556 L10.4832778,9.88516666 C10.8441667,9.88633332 10.9907778,9.63355554 10.8138333,9.3205 C10.8138333,9.3205 9.25983334,6.45438888 8.6345,6.46411112 C8.31405556,6.46916668 7.73694444,7.21544446 7.25005556,7.94227778 L7.24966666,7.94227778 Z M9.03077778,5.29511112 C9.63387273,5.29511112 10.1227778,4.80620606 10.1227778,4.20311112 C10.1227778,3.60001617 9.63387273,3.11111112 9.03077778,3.11111112 C8.42768283,3.11111112 7.93877778,3.60001617 7.93877778,4.20311112 C7.93877778,4.80620606 8.42768283,5.29511112 9.03077778,5.29511112 L9.03077778,5.29511112 Z" id="Shape"></path>
            </g>
        </g>
    </g>
</svg>