<?xml version="1.0" encoding="UTF-8"?>
<svg width="20px" height="20px" viewBox="0 0 20 20" version="1.1" xmlns="http://www.w3.org/2000/svg" xmlns:xlink="http://www.w3.org/1999/xlink">
    <!-- Generator: Sketch 47.1 (45422) - http://www.bohemiancoding.com/sketch -->
    <title>icon/附件/附件</title>
    <desc>Created with Sketch.</desc>
    <defs></defs>
    <g id="Symbols" stroke="none" stroke-width="1" fill="none" fill-rule="evenodd">
        <g id="icon/附件/附件" fill-rule="nonzero" fill="#465364">
            <path d="M15.207576,9.7245329 L10.2035834,14.9517096 C9.65736844,15.5344029 8.89251778,15.8631608 8.09326625,15.8587931 C7.29401472,15.8544254 6.53281284,15.5173281 5.9930166,14.9287 C4.83794083,13.7141942 4.81590122,11.7313686 5.96997519,10.5168628 L11.494904,4.7304533 C12.2412452,3.96013252 13.396321,3.96013252 14.143664,4.7304533 C14.891007,5.50077407 14.891007,6.71427939 14.143664,7.48460016 L9.68364898,12.1515435 C9.36607828,12.4776794 8.93630595,12.4776794 8.61873524,12.1515435 C8.30216634,11.8244073 8.30216634,11.3812228 8.61873524,11.0540865 L12.5588159,6.92336645 L11.7663918,6.08301652 L7.82631119,10.2377466 C7.07996995,11.0080674 7.10200956,12.2215727 7.82631119,12.9918935 C8.57365423,13.7622142 9.72873,13.7622142 10.476073,12.9918935 L14.9360881,8.32394968 C16.090162,7.11044436 16.090162,5.12661826 14.9130467,3.91211253 C14.3673479,3.33384327 13.6081564,3.0041989 12.8124863,3.00003983 C12.0168163,2.99588077 11.2542107,3.31757051 10.7024799,3.89010337 L5.17755114,9.67751332 C3.59270303,11.3342032 3.61474264,14.08835 5.20059255,15.7450399 C6.78544066,17.4027302 9.43420071,17.4257398 10.9960074,15.7690499 L16,10.5408728 L15.2085777,9.7245329 L15.207576,9.7245329 Z" id="Shape"></path>
        </g>
    </g>
</svg>