<?xml version="1.0" encoding="UTF-8"?>
<svg width="36px" height="36px" viewBox="0 0 36 36" version="1.1" xmlns="http://www.w3.org/2000/svg" xmlns:xlink="http://www.w3.org/1999/xlink">
    <!-- Generator: Sketch 48.1 (47250) - http://www.bohemiancoding.com/sketch -->
    <title>icon/上传文件</title>
    <desc>Created with Sketch.</desc>
    <defs></defs>
    <g id="Symbols" stroke="none" stroke-width="1" fill="none" fill-rule="evenodd">
        <g id="icon/上传文件" fill="#919AA7" fill-rule="nonzero">
            <path d="M23.3796429,19.1917857 L23.3792857,19.1917857 C23.6750449,19.479023 23.7931703,19.9032925 23.6884047,20.3020441 C23.583639,20.7007958 23.2722243,21.0122105 22.8734727,21.1169761 C22.474721,21.2217417 22.0504515,21.1036163 21.7632143,20.8078571 L19.1428571,18.1875 L19.1428571,30.8571429 C19.1428571,31.4883254 18.6311826,32 18,32 C17.3688174,32 16.8571429,31.4883254 16.8571429,30.8571429 L16.8571429,18.1875 L14.2367857,20.8078571 C13.9495485,21.1036163 13.525279,21.2217417 13.1265273,21.1169761 C12.7277757,21.0122105 12.416361,20.7007958 12.3115953,20.3020441 C12.2068297,19.9032925 12.3249551,19.479023 12.6207143,19.1917857 L17.1921429,14.6203571 C17.6384366,14.1741587 18.3619206,14.1741587 18.8082143,14.6203571 L23.3796429,19.1917857 Z M26.5714286,26.8571429 L22.5714286,26.8571429 C21.940246,26.8571429 21.4285714,26.3454683 21.4285714,25.7142857 C21.4285714,25.0831031 21.940246,24.5714286 22.5714286,24.5714286 L26.5714286,24.5714286 C29.4071429,24.5714286 31.7142857,22.2642857 31.7142857,19.4285714 C31.7143592,16.7481516 29.6557124,14.5171349 26.9839286,14.3021429 C26.4424173,14.2593422 26.005854,13.8412926 25.9396429,13.3021429 C25.45,9.30214286 22.0357143,6.28571429 18,6.28571429 C13.9642857,6.28571429 10.55,9.30214286 10.0603571,13.3017857 C9.99414596,13.8409354 9.55758269,14.2589851 9.01607143,14.3017857 C6.34415081,14.5167887 4.2854546,16.7480144 4.28571429,19.4285714 C4.28571429,22.2642857 6.59285714,24.5714286 9.42857143,24.5714286 L13.4285714,24.5714286 C14.059754,24.5714286 14.5714286,25.0831031 14.5714286,25.7142857 C14.5714286,26.3454683 14.059754,26.8571429 13.4285714,26.8571429 L9.42857143,26.8571429 C5.3325,26.8571429 2,23.5246429 2,19.4285714 C2.00064467,15.9009309 4.48123003,12.8598523 7.93678571,12.1503571 C8.92857143,7.44642857 13.1071429,4 18,4 C22.8928571,4 27.0714286,7.44642857 28.0632143,12.1503571 C31.51877,12.8598523 33.9993553,15.9009309 34,19.4285714 C34,23.5246429 30.6675,26.8571429 26.5714286,26.8571429 Z" id="上传文件"></path>
        </g>
    </g>
</svg>