<?xml version="1.0" encoding="UTF-8"?>
<svg width="20px" height="20px" viewBox="0 0 20 20" version="1.1" xmlns="http://www.w3.org/2000/svg" xmlns:xlink="http://www.w3.org/1999/xlink">
    <!-- Generator: Sketch 48.2 (47327) - http://www.bohemiancoding.com/sketch -->
    <title>icon/仓库列表未选中</title>
    <desc>Created with Sketch.</desc>
    <defs></defs>
    <g id="Symbols" stroke="none" stroke-width="1" fill="none" fill-rule="evenodd">
        <g id="icon" transform="translate(-454.000000, -187.000000)"></g>
        <g id="icon/仓库列表未选中" fill="#ADB7C3">
            <path d="M15,2 L15,8 L13,7 L11,8 L11,2 L5,2 C3.3,2 2,3.3 2,5 L2,15 C2,16.7 3.3,18 5,18 L15,18 C16.7,18 18,16.7 18,15 L18,5 C18,3.3 16.7,2 15,2 L15,2 Z M16,15 C16,15.6 15.6,16 15,16 L5,16 C4.4,16 4,15.6 4,15 C4,14.4 4.4,14 5,14 L15,14 C15.6,14 15.9,13.9 16,13.8 L16,15 L16,15 Z" id="Fill-27"></path>
        </g>
    </g>
</svg>