<?xml version="1.0" encoding="UTF-8"?>
<svg width="20px" height="20px" viewBox="0 0 20 20" version="1.1" xmlns="http://www.w3.org/2000/svg" xmlns:xlink="http://www.w3.org/1999/xlink">
    <!-- Generator: Sketch 48.2 (47327) - http://www.bohemiancoding.com/sketch -->
    <title>icon/代码分支</title>
    <desc>Created with Sketch.</desc>
    <defs></defs>
    <g id="Symbols" stroke="none" stroke-width="1" fill="none" fill-rule="evenodd">
        <g id="icon" transform="translate(-126.000000, -177.000000)"></g>
        <g id="icon/代码分支" fill="#ADB7C3">
            <path d="M18,4.875 L14.25,4.875 L14.25,12.375 L15.1875,12.375 L15.1875,14.25 C15.1875,15.2840881 14.3465881,16.125 13.3125,16.125 C12.2784119,16.125 11.4375,15.2840881 11.4375,14.25 L11.4375,6.75 C11.4375,4.6822815 9.7552185,3 7.6875,3 C5.6197815,3 3.9375,4.6822815 3.9375,6.75 L3.9375,8.625 L3,8.625 L3,16.125 L6.75,16.125 L6.75,8.625 L5.8125,8.625 L5.8125,6.75 C5.8125,5.71591191 6.65341191,4.875 7.6875,4.875 C8.72158809,4.875 9.5625,5.71591191 9.5625,6.75 L9.5625,14.25 C9.5625,16.3177185 11.2447815,18 13.3125,18 C15.3802185,18 17.0625,16.3177185 17.0625,14.25 L17.0625,12.375 L18,12.375 L18,4.875 L18,4.875 Z" id="Shape"></path>
        </g>
    </g>
</svg>