<?xml version="1.0" encoding="UTF-8"?>
<svg width="20px" height="20px" viewBox="0 0 20 20" version="1.1" xmlns="http://www.w3.org/2000/svg" xmlns:xlink="http://www.w3.org/1999/xlink">
    <!-- Generator: Sketch 48.2 (47327) - http://www.bohemiancoding.com/sketch -->
    <title>icon/关注</title>
    <desc>Created with Sketch.</desc>
    <defs></defs>
    <g id="Symbols" stroke="none" stroke-width="1" fill="none" fill-rule="evenodd">
        <g id="icon" transform="translate(-100.000000, -97.000000)"></g>
        <g id="icon/关注" fill="#919AA7">
            <g transform="translate(2.000000, 4.000000)" id="Fill-124">
                <path d="M7.975,3 C9.675,3 10.975,4.3 10.975,6 C10.975,7.7 9.675,9 7.975,9 C6.275,9 4.975,7.7 4.975,6 C4.975,4.3 6.275,3 7.975,3 M7.975,12 C11.575,12 14.375,8.9 15.575,7.1 C16.075,6.4 16.075,5.5 15.575,4.8 C14.375,3.1 11.575,0 7.975,0 C4.375,0 1.575,3.1 0.375,4.9 C-0.125,5.6 -0.125,6.5 0.375,7.1 C1.575,8.9 4.375,12 7.975,12"></path>
            </g>
        </g>
    </g>
</svg>