<?xml version="1.0" encoding="UTF-8"?>
<svg width="20px" height="20px" viewBox="0 0 20 20" version="1.1" xmlns="http://www.w3.org/2000/svg" xmlns:xlink="http://www.w3.org/1999/xlink">
    <!-- Generator: Sketch 48.2 (47327) - http://www.bohemiancoding.com/sketch -->
    <title>icon/历史版本</title>
    <desc>Created with Sketch.</desc>
    <defs></defs>
    <g id="Symbols" stroke="none" stroke-width="1" fill="none" fill-rule="evenodd">
        <g id="icon" transform="translate(-100.000000, -177.000000)"></g>
        <g id="icon/历史版本" fill="#ADB7C3">
            <path d="M4.302,14.433 C3.576,13.513 3.09,12.417 2.897,11.265 L4.87,10.934 C5.008,11.756 5.354,12.538 5.873,13.194 L4.302,14.433 Z M8.634,17.003 C7.564,16.823 6.534,16.388 5.658,15.744 L6.844,14.133 C7.468,14.592 8.202,14.903 8.966,15.031 L8.634,17.003 Z M10.965,17.003 L10.635,15.03 C11.434,14.896 12.198,14.563 12.844,14.066 L14.063,15.652 C13.158,16.348 12.087,16.815 10.965,17.003 Z M9.8,3.1 C13.659,3.1 16.8,6.24 16.8,10.1 C16.8,11.583 16.341,13.001 15.474,14.201 L13.853,13.028 C14.473,12.172 14.8,11.16 14.8,10.1 C14.8,7.343 12.557,5.1 9.8,5.1 C8.462,5.1 7.193,5.642 6.265,6.565 L8.4,8.7 L2,9.4 L2.7,3 L4.852,5.152 C6.15,3.859 7.927,3.1 9.8,3.1 Z" id="Combined-Shape"></path>
        </g>
    </g>
</svg>