<?xml version="1.0" encoding="UTF-8"?>
<svg width="34px" height="34px" viewBox="0 0 34 34" version="1.1" xmlns="http://www.w3.org/2000/svg" xmlns:xlink="http://www.w3.org/1999/xlink">
    <!-- Generator: Sketch 48.2 (47327) - http://www.bohemiancoding.com/sketch -->
    <title>icon/发布上传</title>
    <desc>Created with Sketch.</desc>
    <defs></defs>
    <g id="Symbols" stroke="none" stroke-width="1" fill="none" fill-rule="evenodd">
        <g id="icon" transform="translate(-214.000000, -360.000000)"></g>
        <g id="icon/发布上传" fill="#919AA7" fill-rule="nonzero">
            <path d="M22.3796429,18.1917857 L22.3792857,18.1917857 C22.6750449,18.479023 22.7931703,18.9032925 22.6884047,19.3020441 C22.583639,19.7007958 22.2722243,20.0122105 21.8734727,20.1169761 C21.474721,20.2217417 21.0504515,20.1036163 20.7632143,19.8078571 L18.1428571,17.1875 L18.1428571,29.8571429 C18.1428571,30.4883254 17.6311826,31 17,31 C16.3688174,31 15.8571429,30.4883254 15.8571429,29.8571429 L15.8571429,17.1875 L13.2367857,19.8078571 C12.9495485,20.1036163 12.525279,20.2217417 12.1265273,20.1169761 C11.7277757,20.0122105 11.416361,19.7007958 11.3115953,19.3020441 C11.2068297,18.9032925 11.3249551,18.479023 11.6207143,18.1917857 L16.1921429,13.6203571 C16.6384366,13.1741587 17.3619206,13.1741587 17.8082143,13.6203571 L22.3796429,18.1917857 Z M25.5714286,25.8571429 L21.5714286,25.8571429 C20.940246,25.8571429 20.4285714,25.3454683 20.4285714,24.7142857 C20.4285714,24.0831031 20.940246,23.5714286 21.5714286,23.5714286 L25.5714286,23.5714286 C28.4071429,23.5714286 30.7142857,21.2642857 30.7142857,18.4285714 C30.7143592,15.7481516 28.6557124,13.5171349 25.9839286,13.3021429 C25.4424173,13.2593422 25.005854,12.8412926 24.9396429,12.3021429 C24.45,8.30214286 21.0357143,5.28571429 17,5.28571429 C12.9642857,5.28571429 9.55,8.30214286 9.06035714,12.3017857 C8.99414596,12.8409354 8.55758269,13.2589851 8.01607143,13.3017857 C5.34415081,13.5167887 3.2854546,15.7480144 3.28571429,18.4285714 C3.28571429,21.2642857 5.59285714,23.5714286 8.42857143,23.5714286 L12.4285714,23.5714286 C13.059754,23.5714286 13.5714286,24.0831031 13.5714286,24.7142857 C13.5714286,25.3454683 13.059754,25.8571429 12.4285714,25.8571429 L8.42857143,25.8571429 C4.3325,25.8571429 1,22.5246429 1,18.4285714 C1.00064467,14.9009309 3.48123003,11.8598523 6.93678571,11.1503571 C7.92857143,6.44642857 12.1071429,3 17,3 C21.8928571,3 26.0714286,6.44642857 27.0632143,11.1503571 C30.51877,11.8598523 32.9993553,14.9009309 33,18.4285714 C33,22.5246429 29.6675,25.8571429 25.5714286,25.8571429 Z" id="Combined-Shape"></path>
        </g>
    </g>
</svg>