<?xml version="1.0" encoding="UTF-8"?>
<svg width="64px" height="64px" viewBox="0 0 64 64" version="1.1" xmlns="http://www.w3.org/2000/svg" xmlns:xlink="http://www.w3.org/1999/xlink">
    <!-- Generator: Sketch 48.2 (47327) - http://www.bohemiancoding.com/sketch -->
    <title>icon/密钥icon</title>
    <desc>Created with Sketch.</desc>
    <defs></defs>
    <g id="Symbols" stroke="none" stroke-width="1" fill="none" fill-rule="evenodd">
        <g id="icon" transform="translate(-100.000000, -360.000000)"></g>
        <g id="icon/密钥icon">
            <g id="密钥icon" transform="translate(1.000000, 1.000000)">
                <circle id="Oval" fill="#9FACBE" cx="31" cy="31" r="30"></circle>
                <path d="M41.7566488,20.2451413 C40.3114866,18.7962309 38.3897079,18 36.3435113,18 C34.2973147,18 32.375536,18.7962309 30.9322879,20.2432273 C29.4832974,21.6902238 28.6851085,23.6138104 28.6870226,25.659894 C28.6870226,27.0475559 29.0813318,28.3624853 29.7685016,29.5262073 L18.5613163,40.7327739 C17.8128946,41.4811543 17.8128946,42.6908127 18.5613163,43.4391932 C18.9345702,43.8124264 19.4245854,44 19.9146007,44 C20.404616,44 20.8946313,43.8124264 21.2678851,43.4391932 L24.8587783,39.8465842 L27.094473,42.0821555 C27.4677268,42.4553887 27.9577421,42.6429623 28.4477573,42.6429623 C28.9377726,42.6429623 29.4277879,42.4553887 29.8010417,42.0821555 C30.5494635,41.333775 30.5494635,40.1241166 29.8010417,39.3757362 L27.565347,37.1401649 L32.4731563,32.2326266 C33.6369426,32.9197585 34.9557727,33.3140459 36.3435113,33.3140459 C38.3897079,33.3140459 40.3134007,32.5159011 41.7585629,31.0689046 C43.2037252,29.6257362 44,27.7040636 44,25.659894 C44,23.6118963 43.2018111,21.6883098 41.7566488,20.2451413 Z M39.0519942,28.3624853 C37.6068319,29.8113958 35.0897613,29.8171378 33.6369426,28.3586572 C32.9134044,27.638987 32.515267,26.6800648 32.515267,25.659894 C32.515267,24.6358952 32.9134044,23.6750589 33.6407708,22.9477326 C34.3623949,22.2242344 35.3213701,21.828033 36.3435113,21.828033 C37.3637384,21.826119 38.3246278,22.2242344 39.0481659,22.9496466 C39.7717041,23.6750589 40.1717557,24.6358952 40.1717557,25.659894 C40.1717557,26.6800648 39.7736182,27.6409011 39.0519942,28.3624853 Z" id="Shape" fill="#FFFFFF" fill-rule="nonzero"></path>
            </g>
        </g>
    </g>
</svg>