<?xml version="1.0" encoding="UTF-8"?>
<svg width="20px" height="20px" viewBox="0 0 20 20" version="1.1" xmlns="http://www.w3.org/2000/svg" xmlns:xlink="http://www.w3.org/1999/xlink">
    <!-- Generator: Sketch 48.2 (47327) - http://www.bohemiancoding.com/sketch -->
    <title>icon/工单管理</title>
    <desc>Created with Sketch.</desc>
    <defs></defs>
    <g id="Symbols" stroke="none" stroke-width="1" fill="none" fill-rule="evenodd">
        <g id="icon" transform="translate(-126.000000, -137.000000)"></g>
        <g id="icon/工单管理" fill="#465364">
            <path d="M10,16 C6.7,16 4,13.3 4,10 C4,6.7 6.7,4 10,4 C13.3,4 16,6.7 16,10 C16,13.3 13.3,16 10,16 M10,2 C14.4,2 18,5.6 18,10 C18,14.4 14.4,18 10,18 C5.6,18 2,14.4 2,10 C2,5.6 5.6,2 10,2 Z M9.0003,6 L9.0003,11 L11.0003,11 L11.0003,6 L9.0003,6 Z M10,12 C9.448,12 9,12.448 9,13 C9,13.552 9.448,14 10,14 C10.552,14 11,13.552 11,13 C11,12.448 10.552,12 10,12 Z" id="Combined-Shape"></path>
        </g>
    </g>
</svg>