<?xml version="1.0" encoding="UTF-8"?>
<svg width="20px" height="20px" viewBox="0 0 20 20" version="1.1" xmlns="http://www.w3.org/2000/svg" xmlns:xlink="http://www.w3.org/1999/xlink">
    <!-- Generator: Sketch 48.2 (47327) - http://www.bohemiancoding.com/sketch -->
    <title>icon/收藏</title>
    <desc>Created with Sketch.</desc>
    <defs></defs>
    <g id="Symbols" stroke="none" stroke-width="1" fill="none" fill-rule="evenodd">
        <g id="icon" transform="translate(-204.000000, -177.000000)"></g>
        <g id="icon/收藏" fill="#ADB7C3">
            <path d="M9.90866889,13.8262153 L6.03168569,15.8162772 C5.93341838,15.866718 5.81286665,15.8279469 5.76242587,15.7296796 C5.74252005,15.6908996 5.73582893,15.6466781 5.74337083,15.603745 L6.48145335,11.4021345 C6.49303824,11.3361863 6.47085289,11.2688161 6.42234993,11.2226552 L3.29930605,8.25041179 C3.21929332,8.17426259 3.21616132,8.04766833 3.29231052,7.9676556 C3.32335728,7.93503365 3.36450523,7.91384466 3.40909309,7.90751885 L7.73355933,7.29399346 C7.79829896,7.28480865 7.85446056,7.24455703 7.88395849,7.18620077 L9.82150754,3.35311465 C9.8713371,3.25453599 9.99164574,3.21501704 10.0902244,3.2648466 C10.1283108,3.28409851 10.1592405,3.31502827 10.1784925,3.35311465 L12.1160415,7.18620077 C12.1455394,7.24455703 12.201701,7.28480865 12.2664407,7.29399346 L16.5909069,7.90751885 C16.7002687,7.92303435 16.7763462,8.02426741 16.7608307,8.13362923 C16.7545049,8.17821709 16.7333159,8.21936504 16.7006939,8.25041179 L13.5776501,11.2226552 C13.5291471,11.2688161 13.5069618,11.3361863 13.5185466,11.4021345 L14.2566292,15.603745 C14.2757401,15.7125362 14.20304,15.8162213 14.0942489,15.8353323 C14.0513158,15.8428742 14.0070943,15.836183 13.9683143,15.8162772 L10.0913311,13.8262153 C10.0339996,13.7967869 9.96600043,13.7967869 9.90866889,13.8262153 Z" id="收藏"></path>
        </g>
    </g>
</svg>