<?xml version="1.0" encoding="UTF-8"?>
<svg width="20px" height="20px" viewBox="0 0 20 20" version="1.1" xmlns="http://www.w3.org/2000/svg" xmlns:xlink="http://www.w3.org/1999/xlink">
    <!-- Generator: Sketch 48.2 (47327) - http://www.bohemiancoding.com/sketch -->
    <title>icon/文件</title>
    <desc>Created with Sketch.</desc>
    <defs></defs>
    <g id="Symbols" stroke="none" stroke-width="1" fill="none" fill-rule="evenodd">
        <g id="icon" transform="translate(-100.000000, -137.000000)"></g>
        <g id="icon/文件" fill="#465364">
            <path d="M10,5 L10,4 C10,3.4 9.6,3 9,3 L3,3 C2.4,3 2,3.4 2,4 L2,17 C2,17.6 2.4,18 3,18 L17,18 C17.6,18 18,17.6 18,17 L18,6 C18,5.4 17.6,5 17,5 L10,5 Z M8,6 C8,6.6 8.4,7 9,7 L16,7 L16,9 L4,9 L4,5 L8,5 L8,6 Z M4,11 L16,11 L16,16 L4,16 L4,11 Z" id="Fill-8"></path>
        </g>
    </g>
</svg>