<?xml version="1.0" encoding="UTF-8"?>
<svg width="20px" height="20px" viewBox="0 0 20 20" version="1.1" xmlns="http://www.w3.org/2000/svg" xmlns:xlink="http://www.w3.org/1999/xlink">
    <!-- Generator: Sketch 48.2 (47327) - http://www.bohemiancoding.com/sketch -->
    <title>icon/版本发布</title>
    <desc>Created with Sketch.</desc>
    <defs></defs>
    <g id="Symbols" stroke="none" stroke-width="1" fill="none" fill-rule="evenodd">
        <g id="icon" transform="translate(-152.000000, -177.000000)"></g>
        <g id="icon/版本发布" fill="#ADB7C3">
            <path d="M17.7068123,2.29263651 C17.4338123,2.02063651 17.0268123,1.92763651 16.6638123,2.05863651 L2.66381231,7.05863651 C2.28681231,7.19263651 2.02581231,7.53963651 2.00181231,7.93863651 C1.97781231,8.33863651 2.19381231,8.71363651 2.55281231,8.89363651 L7.13881231,11.1856365 L12.9998123,6.99963651 L8.81281231,12.8616365 L11.1048123,17.4476365 C11.2758123,17.7866365 11.6228123,17.9996365 11.9998123,17.9996365 C12.0208123,17.9996365 12.0408123,17.9986365 12.0608123,17.9976365 C12.4608123,17.9736365 12.8078123,17.7136365 12.9428123,17.3356365 L17.9428123,3.33563651 C18.0718123,2.97263651 17.9798123,2.56563651 17.7068123,2.29263651" id="Fill-452"></path>
        </g>
    </g>
</svg>