<?xml version="1.0" encoding="UTF-8"?>
<svg width="20px" height="20px" viewBox="0 0 20 20" version="1.1" xmlns="http://www.w3.org/2000/svg" xmlns:xlink="http://www.w3.org/1999/xlink">
    <!-- Generator: Sketch 48.2 (47327) - http://www.bohemiancoding.com/sketch -->
    <title>icon/设置_2</title>
    <desc>Created with Sketch.</desc>
    <defs></defs>
    <g id="Symbols" stroke="none" stroke-width="1" fill="none" fill-rule="evenodd">
        <g id="icon" transform="translate(-230.000000, -137.000000)"></g>
        <g id="icon/设置_2" fill="#919AA7">
            <path d="M10,12.25 C8.725,12.25 7.75,11.275 7.75,10 C7.75,8.725 8.725,7.75 10,7.75 C11.275,7.75 12.25,8.725 12.25,10 C12.25,11.275 11.275,12.25 10,12.25 M13.975,7.9 L14.8,6.325 L13.75,5.275 L12.175,6.1 C11.95,5.95 11.65,5.875 11.35,5.8 L10.75,4 L9.25,4 L8.65,5.725 C8.425,5.8 8.125,5.875 7.9,6.025 L6.325,5.2 L5.2,6.325 L6.025,7.9 C5.875,8.125 5.8,8.425 5.725,8.65 L4,9.25 L4,10.75 L5.725,11.35 C5.8,11.65 5.95,11.875 6.025,12.175 L5.2,13.75 L6.25,14.8 L7.825,13.975 C8.05,14.125 8.35,14.2 8.65,14.275 L9.25,16 L10.75,16 L11.35,14.275 C11.65,14.2 11.875,14.05 12.175,13.975 L13.75,14.8 L14.8,13.75 L13.975,12.175 C14.125,11.95 14.2,11.65 14.275,11.35 L16,10.75 L16,9.25 L14.275,8.65 C14.2,8.425 14.125,8.125 13.975,7.9" id="Fill-169"></path>
        </g>
    </g>
</svg>