<?xml version="1.0" encoding="UTF-8"?>
<svg width="20px" height="20px" viewBox="0 0 20 20" version="1.1" xmlns="http://www.w3.org/2000/svg" xmlns:xlink="http://www.w3.org/1999/xlink">
    <!-- Generator: Sketch 48.2 (47327) - http://www.bohemiancoding.com/sketch -->
    <title>icon/设置</title>
    <desc>Created with Sketch.</desc>
    <defs></defs>
    <g id="Symbols" stroke="none" stroke-width="1" fill="none" fill-rule="evenodd">
        <g id="icon" transform="translate(-204.000000, -137.000000)"></g>
        <g id="icon/设置" fill="#465364">
            <path d="M10,12.625 C8.5125,12.625 7.375,11.4875 7.375,10 C7.375,8.5125 8.5125,7.375 10,7.375 C11.4875,7.375 12.625,8.5125 12.625,10 C12.625,11.4875 11.4875,12.625 10,12.625 M14.6375,7.55 L15.6,5.7125 L14.375,4.4875 L12.5375,5.45 C12.275,5.275 11.925,5.1875 11.575,5.1 L10.875,3 L9.125,3 L8.425,5.0125 C8.1625,5.1 7.8125,5.1875 7.55,5.3625 L5.7125,4.4 L4.4,5.7125 L5.3625,7.55 C5.1875,7.8125 5.1,8.1625 5.0125,8.425 L3,9.125 L3,10.875 L5.0125,11.575 C5.1,11.925 5.275,12.1875 5.3625,12.5375 L4.4,14.375 L5.625,15.6 L7.4625,14.6375 C7.725,14.8125 8.075,14.9 8.425,14.9875 L9.125,17 L10.875,17 L11.575,14.9875 C11.925,14.9 12.1875,14.725 12.5375,14.6375 L14.375,15.6 L15.6,14.375 L14.6375,12.5375 C14.8125,12.275 14.9,11.925 14.9875,11.575 L17,10.875 L17,9.125 L14.9875,8.425 C14.9,8.1625 14.8125,7.8125 14.6375,7.55" id="Fill-169"></path>
        </g>
    </g>
</svg>