<?xml version="1.0" encoding="UTF-8"?>
<svg width="20px" height="20px" viewBox="0 0 20 20" version="1.1" xmlns="http://www.w3.org/2000/svg" xmlns:xlink="http://www.w3.org/1999/xlink">
    <!-- Generator: Sketch 48.2 (47327) - http://www.bohemiancoding.com/sketch -->
    <title>icon/账户设置</title>
    <desc>Created with Sketch.</desc>
    <defs></defs>
    <g id="Symbols" stroke="none" stroke-width="1" fill="none" fill-rule="evenodd">
        <g id="icon" transform="translate(-480.000000, -157.000000)"></g>
        <g id="icon/账户设置" fill="#475669">
            <path d="M10,13 C8.3,13 7,11.7 7,10 C7,8.3 8.3,7 10,7 C11.7,7 13,8.3 13,10 C13,11.7 11.7,13 10,13 M15.3,7.2 L16.4,5.1 L15,3.7 L12.9,4.8 C12.6,4.6 12.2,4.5 11.8,4.4 L11,2 L9,2 L8.2,4.3 C7.9,4.4 7.5,4.5 7.2,4.7 L5.1,3.6 L3.6,5.1 L4.7,7.2 C4.5,7.5 4.4,7.9 4.3,8.2 L2,9 L2,11 L4.3,11.8 C4.4,12.2 4.6,12.5 4.7,12.9 L3.6,15 L5,16.4 L7.1,15.3 C7.4,15.5 7.8,15.6 8.2,15.7 L9,18 L11,18 L11.8,15.7 C12.2,15.6 12.5,15.4 12.9,15.3 L15,16.4 L16.4,15 L15.3,12.9 C15.5,12.6 15.6,12.2 15.7,11.8 L18,11 L18,9 L15.7,8.2 C15.6,7.9 15.5,7.5 15.3,7.2" id="Fill-169"></path>
        </g>
    </g>
</svg>