<?xml version="1.0" encoding="UTF-8"?>
<svg width="100px" height="30px" viewBox="0 0 100 30" version="1.1" xmlns="http://www.w3.org/2000/svg" xmlns:xlink="http://www.w3.org/1999/xlink">
    <!-- Generator: Sketch 47.1 (45422) - http://www.bohemiancoding.com/sketch -->
    <title>logo002</title>
    <desc>Created with Sketch.</desc>
    <defs></defs>
    <g id="Symbols" stroke="none" stroke-width="1" fill="none" fill-rule="evenodd">
        <g id="logo002">
            <path d="M42.382985,21 L31,21 L31,8.1595092 L42.3022546,8.1595092 L42.3022546,9.99386503 L33.0989901,9.99386503 L33.0989901,19.1656442 L40.2839948,19.1656442 L40.2839948,15.5766871 L35.6823626,15.5766871 L35.6823626,13.6625767 L42.382985,13.6625767 L42.382985,21 Z M47.5381048,9.75460123 L45.519845,9.75460123 L45.519845,8 L47.5381048,8 L47.5381048,9.75460123 Z M43.9052372,10.6319018 L47.5381048,10.6319018 L47.5381048,20.9202454 L45.519845,20.9202454 L45.519845,12.3865031 L43.9052372,12.3865031 L43.9052372,10.6319018 Z M49.3025481,10.6319018 L50.9171559,10.6319018 L50.9171559,8 L52.9354157,8 L52.9354157,10.6319018 L57.0526656,10.6319018 L57.0526656,12.5460123 L52.9354157,12.5460123 L52.9354157,19.0858896 L56.9719352,19.0858896 L56.9719352,20.9202454 L50.9171559,20.9202454 L50.9171559,12.5460123 L49.3025481,12.5460123 L49.3025481,10.6319018 Z M61.8848638,9.75460123 L59.866604,9.75460123 L59.866604,8 L61.8848638,8 L61.8848638,9.75460123 Z M58.2519962,10.6319018 L61.8848638,10.6319018 L61.8848638,20.9202454 L59.866604,20.9202454 L59.866604,12.3865031 L58.2519962,12.3865031 L58.2519962,10.6319018 Z M73.9827971,21 L71.9645373,21 L71.9645373,12.4662577 L66.4748708,12.4662577 L66.4748708,21 L64.4566111,21 L64.4566111,10.6319018 L73.9827971,10.6319018 L73.9827971,21 Z M86,21 L83.9817403,21 L83.9817403,12.4662577 L78.4920737,12.4662577 L78.4920737,21 L76.473814,21 L76.473814,10.6319018 L86,10.6319018 L86,21 Z" id="Gitinn" fill="#FFFFFF"></path>
            <path d="M12.411215,15.9632114 L12,16.1922764 L3.68224301,11.554878 L3.68224301,19.3056911 L12,24.0552845 L20.317757,19.3056911 L20.317757,11.554878 L12.8224299,15.7341464 L12.411215,15.9632114 L12,16.1922764 L12,14.2662602 L22,8.69390245 L22,20.2873984 L12,26 L12,24.0552845 L20.317757,19.3056911 L20.317757,11.554878 L12.8224299,15.7341464 L12.4112149,15.9632114 Z M12.046729,4.67357724 L5.17757009,8.69390245 L3.60747665,7.81504065 L12,3 L20.3925234,7.81504065 L18.8224299,8.69390245 L12.046729,4.67357724 Z M12,14.2662602 L22,8.69390245 L22,20.2873984 L12,26 L2,20.2873984 L2,8.69390245 L12,14.2662602 Z M17,16 L17,18 L12,21 L12,19 L17,16 Z M12,19 L12,21 L7,18 L7,16 L12,19 Z" id="Combined-Shape" fill="#3F96FF" fill-rule="nonzero"></path>
        </g>
    </g>
</svg>