<?xml version="1.0" encoding="UTF-8"?>
<svg width="100px" height="40px" viewBox="0 0 100 40" version="1.1" xmlns="http://www.w3.org/2000/svg" xmlns:xlink="http://www.w3.org/1999/xlink">
    <!-- Generator: Sketch 48.2 (47327) - http://www.bohemiancoding.com/sketch -->
    <title>icon/按钮/关注</title>
    <desc>Created with Sketch.</desc>
    <defs>
        <path d="M18,0 L78,0 C87.9411255,-1.82615513e-15 96,8.0588745 96,18 L96,18 C96,27.9411255 87.9411255,36 78,36 L18,36 C8.0588745,36 1.21743675e-15,27.9411255 0,18 L0,18 C-1.21743675e-15,8.0588745 8.0588745,1.82615513e-15 18,0 Z" id="path-1"></path>
        <filter x="-16.7%" y="-38.9%" width="133.3%" height="188.9%" filterUnits="objectBoundingBox" id="filter-2">
            <feOffset dx="0" dy="2" in="SourceAlpha" result="shadowOffsetOuter1"></feOffset>
            <feGaussianBlur stdDeviation="5" in="shadowOffsetOuter1" result="shadowBlurOuter1"></feGaussianBlur>
            <feColorMatrix values="0 0 0 0 0.188235294   0 0 0 0 0.556862745   0 0 0 0 1  0 0 0 0.301573822 0" type="matrix" in="shadowBlurOuter1"></feColorMatrix>
        </filter>
    </defs>
    <g id="Symbols" stroke="none" stroke-width="1" fill="none" fill-rule="evenodd">
        <g id="icon" transform="translate(-456.000000, -87.000000)"></g>
        <g id="icon/按钮/关注">
            <g id="按钮/关注" transform="translate(2.000000, 2.000000)">
                <g id="Rectangle-12">
                    <use fill="black" fill-opacity="1" filter="url(#filter-2)" xlink:href="#path-1"></use>
                    <use fill="#308EFF" fill-rule="evenodd" xlink:href="#path-1"></use>
                </g>
                <g id="Group-14" transform="translate(28.000000, 8.000000)" fill="#FFFFFF">
                    <text id="关注" font-family="PingFangSC-Medium, PingFang SC" font-size="14" font-weight="400">
                        <tspan x="13" y="15">关注</tspan>
                    </text>
                    <path d="M4,9 L4,6 C4,5.44771525 4.44771525,5 5,5 C5.55228475,5 6,5.44771525 6,6 L6,9 L9,9 C9.55228475,9 10,9.44771525 10,10 C10,10.5522847 9.55228475,11 9,11 L6,11 L6,14 C6,14.5522847 5.55228475,15 5,15 C4.44771525,15 4,14.5522847 4,14 L4,11 L1,11 C0.44771525,11 6.76353751e-17,10.5522847 0,10 C-6.76353751e-17,9.44771525 0.44771525,9 1,9 L4,9 Z" id="关注"></path>
                </g>
            </g>
        </g>
    </g>
</svg>