<?xml version="1.0" encoding="UTF-8"?>
<svg width="20px" height="20px" viewBox="0 0 20 20" version="1.1" xmlns="http://www.w3.org/2000/svg" xmlns:xlink="http://www.w3.org/1999/xlink">
    <!-- Generator: Sketch 48.2 (47327) - http://www.bohemiancoding.com/sketch -->
    <title>icon/导航/设置</title>
    <desc>Created with Sketch.</desc>
    <defs></defs>
    <g id="Symbols" stroke="none" stroke-width="1" fill="none" fill-rule="evenodd">
        <g id="icon" transform="translate(-532.000000, -217.000000)"></g>
        <g id="icon/导航/设置" fill="#465364">
            <path d="M16,5 C16.6,5 17,5.4 17,6 C17,6.6 16.6,7 16,7 L12,7 C11.4,7 11,6.6 11,6 C11,5.4 11.4,5 12,5 L16,5 Z M7,3 C8.7,3 10,4.3 10,6 C10,7.7 8.7,9 7,9 C5.7,9 4.6,8.1 4.2,7 L4,7 L3,7 C2.4,7 2,6.6 2,6 C2,5.4 2.4,5 3,5 L4,5 L4.2,5 C4.6,3.9 5.7,3 7,3 Z M4,15 C3.4,15 3,14.6 3,14 C3,13.4 3.4,13 4,13 L8,13 C8.6,13 9,13.4 9,14 C9,14.6 8.6,15 8,15 L4,15 Z M17,13 C17.6,13 18,13.4 18,14 C18,14.6 17.6,15 17,15 L16,15 L15.8,15 C15.4,16.1 14.3,17 13,17 C11.3,17 10,15.7 10,14 C10,12.3 11.3,11 13,11 C14.3,11 15.4,11.8 15.8,13 L16,13 L17,13 Z" id="Combined-Shape"></path>
        </g>
    </g>
</svg>