<?xml version="1.0" encoding="UTF-8"?>
<svg width="20px" height="20px" viewBox="0 0 20 20" version="1.1" xmlns="http://www.w3.org/2000/svg" xmlns:xlink="http://www.w3.org/1999/xlink">
    <!-- Generator: Sketch 48.2 (47327) - http://www.bohemiancoding.com/sketch -->
    <title>icon/附件/压缩文件</title>
    <desc>Created with Sketch.</desc>
    <defs></defs>
    <g id="Symbols" stroke="none" stroke-width="1" fill="none" fill-rule="evenodd">
        <g id="icon" transform="translate(-100.000000, -291.000000)"></g>
        <g id="icon/附件/压缩文件" fill-rule="nonzero">
            <g id="压缩包" transform="translate(3.000000, 4.000000)">
                <path d="M1.00167364,0.00585365854 L12.9983264,0.00585365854 C13.550484,0.00585365854 13.9980962,0.453153953 13.9980962,1.00492683 L13.9980962,4.002 L0.00190376569,4.002 L0.00190376569,1.00492683 C0.00190376569,0.453153953 0.449515985,0.00585365854 1.00167364,0.00585365854 Z" id="Shape" fill="#00C9FC"></path>
                <polygon id="Shape" fill="#FF5056" points="0.00190376569 4.002 13.9979498 4.002 13.9979498 7.99814634 0.00190376569 7.99814634"></polygon>
                <path d="M0.00190376569,7.998 L13.9980962,7.998 L13.9980962,10.9950732 C13.9980962,11.546846 13.550484,11.9941463 12.9983264,11.9941463 L1.00167364,11.9941463 C0.449515985,11.9941463 0.00190376569,11.546846 0.00190376569,10.9950732 L0.00190376569,7.998 Z" id="Shape" fill="#5ED300"></path>
                <polygon id="Shape" fill="#FFAB00" points="5.00060669 0.00585365854 8.99953975 0.00585365854 8.99953975 11.9941463 5.00060669 11.9941463"></polygon>
                <path d="M8.49972803,7.79809756 L5.50056485,7.79809756 C5.05920228,7.79753319 4.70154803,7.44012817 4.70098326,6.99907317 L4.70098326,5.00092683 C4.70154803,4.55987183 5.05920228,4.20246681 5.50056485,4.20190244 L8.49972803,4.20190244 C8.94109061,4.20246681 9.29874486,4.55987183 9.29930962,5.00092683 L9.29930962,6.99907317 C9.29874486,7.44012817 8.94109061,7.79753319 8.49972803,7.79809756 Z M5.50056485,4.80102439 C5.3900708,4.80118558 5.30053787,4.89065612 5.30037657,5.00107317 L5.30037657,6.99907317 C5.30053787,7.10949022 5.3900708,7.19896076 5.50056485,7.19912195 L8.49972803,7.19912195 C8.61022209,7.19896076 8.69975501,7.10949022 8.69991632,6.99907317 L8.69991632,5.00092683 C8.69975501,4.89050978 8.61022209,4.80103924 8.49972803,4.80087805 L5.50056485,4.80102439 Z" id="Shape" fill="#FFFFFF"></path>
            </g>
        </g>
    </g>
</svg>