<?xml version="1.0" encoding="UTF-8"?>
<svg width="20px" height="20px" viewBox="0 0 20 20" version="1.1" xmlns="http://www.w3.org/2000/svg" xmlns:xlink="http://www.w3.org/1999/xlink">
    <!-- Generator: Sketch 48.2 (47327) - http://www.bohemiancoding.com/sketch -->
    <title>icon/附件/普通文件</title>
    <desc>Created with Sketch.</desc>
    <defs></defs>
    <g id="Symbols" stroke="none" stroke-width="1" fill="none" fill-rule="evenodd">
        <g id="icon" transform="translate(-152.000000, -291.000000)"></g>
        <g id="icon/附件/普通文件" fill-rule="nonzero">
            <g id="pdf" transform="translate(3.000000, 3.000000)">
                <path d="M2.72,5.68434189e-14 C0.830688477,3.19744231e-14 1,1.525 1,1.7 L1,12.3 C1,13.7856445 2.54,14 2.72,14 L12.28,14 C13.6578369,14 14,12.475 14,12.3 L14,3.96666667 L9.92,5.68434189e-14 L2.72,5.68434189e-14 Z" id="Shape" fill="#FF5562"></path>
                <path d="M10.2387642,12 C9.44222956,12 8.73419877,10.6149984 8.35489656,9.7173121 C7.7227262,9.44800622 7.02733882,9.20434852 6.35723825,9.03763536 C5.76299812,9.43518213 4.76416896,10.0250902 3.99292113,10.0250902 C3.51247167,10.0250902 3.17109968,9.78143254 3.04466561,9.3582376 C2.94351835,9.01198718 3.0320222,8.76832949 3.13316946,8.64008859 C3.33546397,8.35795863 3.7526964,8.21689365 4.38486675,8.21689365 C4.89060303,8.21689365 5.53541679,8.30666227 6.25609099,8.48619952 C6.72389705,8.1527732 7.19170311,7.76805052 7.60893554,7.35767966 C7.41928444,6.45999341 7.21698992,5.01087131 7.73536961,4.34401867 C7.98823775,4.02341643 8.38018337,3.92082372 8.84798943,4.0618887 C9.36636912,4.21577777 9.55602022,4.53638001 9.61923726,4.7800377 C9.83417518,5.65207578 8.84798943,6.831892 8.17788886,7.52439282 C8.32960974,8.12712502 8.51926085,8.7555054 8.75948558,9.33258942 C9.72038451,9.76860846 10.8582911,10.4098129 10.9847252,11.1151378 C11.0352988,11.3587955 10.9594384,11.5896291 10.7697873,11.7819905 C10.605423,11.9230555 10.4284153,12 10.2387642,12 Z M9,10 C9.45047709,10.9085546 9.87724486,11.3333333 10.1024834,11.3333333 C10.1380474,11.3333333 10.185466,11.3215339 10.256594,11.2625369 C10.3395766,11.179941 10.3395766,11.120944 10.327722,11.0737463 C10.2803033,10.8377581 9.90095418,10.4483776 9,10 Z M4.48360106,8.66666667 C3.90963853,8.66666667 3.74564924,8.79569892 3.69879515,8.84946237 C3.68708163,8.87096774 3.64022755,8.92473118 3.68708163,9.07526882 C3.7222222,9.20430108 3.81593036,9.33333333 4.12048191,9.33333333 C4.49531458,9.33333333 5.03413654,9.13978495 5.66666667,8.79569892 C5.20983935,8.70967742 4.81157964,8.66666667 4.48360106,8.66666667 Z M7,8.84848485 C7.44444444,8.98484848 7.90277778,9.15151515 8.33333333,9.33333333 C8.18055556,8.89393939 8.05555556,8.43939394 7.94444444,8 C7.63888889,8.28787879 7.31944444,8.57575758 7,8.84848485 Z M8.26103215,4.66666667 C8.11101033,4.66666667 8.00190355,4.72340426 7.90643512,4.83687943 C7.62002982,5.20567376 7.59275312,6.14184397 7.81096668,7.33333333 C8.64290588,6.41134752 9.09297135,5.56028369 8.98386457,5.10638298 C8.97022622,5.03546099 8.91567283,4.83687943 8.5337991,4.72340426 C8.42469232,4.68085106 8.34286224,4.66666667 8.26103215,4.66666667 Z" id="Shape" fill="#FFFFFF"></path>
                <path d="M14,3.88734358 L11.6871939,3.88734358 C9.88331923,3.88734358 10.0015895,2.42459721 10.0015895,2.25309676 L10.0015895,0 L14,3.88734358 Z" id="Shape" fill="#FFBBC0"></path>
            </g>
        </g>
    </g>
</svg>